<?xml version="1.0" encoding="utf-8"?>
<!-- Generator: Adobe Illustrator 21.0.0, SVG Export Plug-In . SVG Version: 6.00 Build 0)  -->
<svg version="1.1" id="Layer_1" xmlns="http://www.w3.org/2000/svg" xmlns:xlink="http://www.w3.org/1999/xlink" x="0px" y="0px"
	 width="128.1px" height="109.4px" viewBox="0 0 128.1 109.4" enable-background="new 0 0 128.1 109.4" xml:space="preserve">
<g id="XMLID_25_">
	<g>
		<path id="XMLID_143_" fill="#74EC89" d="M0.1,24.1c0-3.6-0.9-7.9,5.9-9.5l48.6,18.7L0.1,24.1z"/>
		<polygon id="XMLID_142_" fill="#74EC89" points="46.4,29.9 92.9,28.1 69.2,100.9 63.7,100.8 		"/>
		<path id="XMLID_141_" fill="#74EC89" d="M121,15.9c6.1,1.5,6.4,5.2,6.4,8.7l-36.3,4.5L121,15.9z"/>
		<path id="XMLID_140_" fill="#74EC89" d="M59.5,108.4c3.2,0.9,7.2,1.3,12.5,0.1l-6.1-10L59.5,108.4z"/>
	</g>
	<g id="XMLID_35_" enable-background="new    ">
		<g id="XMLID_138_">
			<polygon id="XMLID_139_" fill="none" points="0.7,19.3 62.9,2.5 63.6,74 1.6,91.1 			"/>
		</g>
		<g id="XMLID_136_">
			<polygon id="XMLID_137_" fill="none" points="1.6,91.1 63.6,74 127.5,91.9 65.4,109.1 			"/>
		</g>
		<g id="XMLID_134_">
			<polygon id="XMLID_135_" fill="none" points="0.7,19.3 62.9,2.5 126.8,20.1 64.6,37 			"/>
		</g>
		<g id="XMLID_104_">
			<g id="XMLID_132_">
				<path fill="#4D0098" d="M60.8,107.7c-0.4,0-0.7-0.1-1.1-0.2L4.3,91.8c-1.5-0.4-2.5-1.8-2.5-3.3L1,24.3c0-0.9,0.3-1.8,1-2.4
					c0.6-0.6,1.5-1,2.4-1c0.3,0,0.6,0,0.9,0.1l54.5,15.2c2.4,0.7,4.2,2.9,4.2,5.5l0.7,62.1c0,1-0.4,2-1.1,2.8
					C62.8,107.3,61.8,107.7,60.8,107.7z"/>
				<path fill="#74EC89" d="M4.4,21.8c0.2,0,0.5,0,0.7,0.1l55.2,15.5c2.1,0.6,3.5,2.5,3.6,4.6l0.7,62.1c0,0.8-0.3,1.6-0.9,2.1
					c-0.6,0.6-1.3,0.9-2.1,0.9c-0.3,0-0.6,0-0.8-0.1L4.5,90.9c-1.1-0.3-1.9-1.3-1.9-2.4L1.8,24.3c0-0.7,0.2-1.3,0.7-1.8
					C3,22.1,3.7,21.8,4.4,21.8 M4.4,20c-2.3,0-4.3,1.9-4.3,4.3l0.8,64.2c0,1.9,1.3,3.6,3.1,4.1l55.5,15.8c0.4,0.1,0.9,0.2,1.3,0.2
					c2.6,0,4.8-2.1,4.7-4.8l-0.7-62.1c0-2.9-2-5.5-4.8-6.3L5.5,20.2C5.1,20.1,4.7,20,4.4,20L4.4,20z"/>
			</g>
			<g id="XMLID_105_" enable-background="new    ">
				<defs>
					<polygon id="XMLID_116_" enable-background="new    " points="64.6,37 65.4,109.1 1.6,91.1 0.7,19.3 					"/>
				</defs>
				<clipPath id="XMLID_3_">
					<use xlink:href="#XMLID_116_"  overflow="visible"/>
				</clipPath>
				<g id="XMLID_117_" clip-path="url(#XMLID_3_)">
					<path id="XMLID_118_" fill="#74EC89" d="M41.2,41.8l0,1.7c0,0-11.9-3.3-13.5-3.7c-2.3-0.6-2.7,0.7-2.7,3.1c0,1.4,0,1.1,0,2.8
						c0,1.7,0,3.8,0.1,6c0,2.2,0.1,4.4,0.1,6c0,1.6,0,2.7,0,2.7l15.4,4.3l0,2.2l-15.4-4.3c0,0,0,0.1,0,1.9c0,1.8,0,4.1,0.1,6.5
						c0,2.3,0.1,4.7,0.1,6.5c0,1.8,0,2.9,0,3c0,0,0.2,4,2.9,4.7c2.7,0.8,13.4,3.8,13.4,3.8l0,1.7l-14.3-4c-0.6-0.2-1.1-0.4-1.5-0.8
						c-0.5-0.4-0.8-0.9-1.2-1.5c-0.3-0.6-0.6-1.2-0.8-2c-0.2-0.7-0.3-1.5-0.3-2.4l-0.4-37.5c0-0.9,0.1-1.6,0.2-2.2
						c0.2-0.6,0.4-1.2,0.7-1.6c0.3-0.4,0.7-0.7,1.1-0.8c0.4-0.1,0.9-0.1,1.5,0L41.2,41.8"/>
				</g>
			</g>
		</g>
		<g id="XMLID_92_">
			<polygon id="XMLID_94_" fill="none" points="64.6,37 126.8,20.1 127.5,91.9 65.4,109.1 			"/>
		</g>
		<g id="XMLID_81_">
			<g id="XMLID_87_">
				<path fill="#4D0098" d="M70.7,107.9c-2.2,0-3.9-1.8-4-3.9L66,41.7c0-2.8,1.8-5.3,4.6-6l52-14.2c0.3-0.1,0.6-0.1,0.9-0.1
					c1.8,0,3.2,1.4,3.2,3.2l0.6,64.5c0,1.9-1.2,3.5-3,4l-52.5,14.6C71.4,107.8,71,107.9,70.7,107.9z"/>
				<path fill="#74EC89" d="M123.4,22.2c1.3,0,2.4,1.1,2.4,2.4l0.6,64.5c0,1.5-1,2.8-2.4,3.2l-53.2,14.8c-0.3,0.1-0.6,0.1-0.9,0.1
					c-1.7,0-3.2-1.4-3.2-3.1l-0.7-62.2c0-2.5,1.6-4.6,4-5.3l52.6-14.4C123,22.2,123.2,22.2,123.4,22.2 M123.4,20.6
					c-0.3,0-0.7,0-1.1,0.1l-52,14.2c-3.1,0.8-5.2,3.6-5.1,6.8l0.7,62.2c0,2.7,2.2,4.7,4.7,4.7c0.4,0,0.8-0.1,1.3-0.2l52.5-14.6
					c2.1-0.6,3.6-2.5,3.6-4.8l-0.6-64.5C127.4,22.3,125.6,20.6,123.4,20.6L123.4,20.6z"/>
			</g>
			<g id="XMLID_82_" enable-background="new    ">
				<defs>
					<polygon id="XMLID_83_" enable-background="new    " points="65.2,36.4 127.4,19.4 128.1,92.9 66,110.1 					"/>
				</defs>
				<clipPath id="XMLID_4_">
					<use xlink:href="#XMLID_83_"  overflow="visible"/>
				</clipPath>
				<g id="XMLID_84_" clip-path="url(#XMLID_4_)">
					<polygon id="XMLID_80_" fill="#74EC89" points="98.5,39.1 99.3,87 96.9,87.7 96.1,39.8 					"/>
				</g>
			</g>
		</g>
		<g id="XMLID_78_">
			<g id="XMLID_79_">
				<path fill="#4D0098" d="M64.7,36.9c-0.9,0-1.8-0.1-2.7-0.4L5.9,20.9c-1.2-0.3-2-1.4-2-2.7c0-1.3,0.8-2.3,2.1-2.7L58.9,1.3
					c0.9-0.2,1.9-0.4,2.8-0.4c1,0,1.9,0.1,2.8,0.4l56.6,15.6c1.1,0.3,1.9,1.3,1.9,2.5c0,1.2-0.8,2.2-1.9,2.5L67.3,36.5
					C66.4,36.8,65.6,36.9,64.7,36.9z"/>
				<path fill="#74EC89" d="M61.7,1.8c0.9,0,1.8,0.1,2.6,0.4l56.6,15.6c1.7,0.5,1.7,2.8,0,3.3L67.1,35.7c-0.8,0.2-1.6,0.3-2.4,0.3
					c-0.8,0-1.7-0.1-2.5-0.3L6.1,20.1c-1.8-0.5-1.8-3.1,0-3.6L59.1,2.1C59.9,1.9,60.8,1.8,61.7,1.8 M61.7,0c-1,0-2,0.1-3,0.4
					L5.7,14.7C4.1,15.1,3,16.6,3,18.2c0,1.7,1.1,3.1,2.7,3.6l56.1,15.6c1,0.3,1.9,0.4,2.9,0.4c1,0,1.9-0.1,2.9-0.4l53.8-14.7
					c1.5-0.4,2.6-1.8,2.6-3.4c0-1.6-1-2.9-2.6-3.4L64.8,0.4C63.8,0.1,62.7,0,61.7,0L61.7,0z"/>
			</g>
		</g>
		<g id="XMLID_71_">
			<path id="XMLID_73_" fill="none" d="M0.1,18.3l65.1,18.1l0.8,73.8L1,91.7L0.1,18.3z M65.4,109.1L64.6,37L0.7,19.3l0.9,71.8
				L65.4,109.1"/>
		</g>
	</g>
</g>
</svg>
