<svg width="29" height="30" viewBox="0 0 29 30" fill="none" xmlns="http://www.w3.org/2000/svg">
<path d="M27.8846 15C27.8846 7.60788 21.8921 1.61538 14.5 1.61538C7.10788 1.61538 1.11538 7.60788 1.11538 15C1.11538 22.3921 7.10788 28.3846 14.5 28.3846C21.8921 28.3846 27.8846 22.3921 27.8846 15ZM29 15C29 23.0081 22.5081 29.5 14.5 29.5C6.49187 29.5 1.68421e-07 23.0081 0 15C0 6.99187 6.49187 0.5 14.5 0.5C22.5081 0.5 29 6.99187 29 15Z" fill="white"/>
<path d="M11.8768 10.6325C12.2711 10.6325 12.6311 10.6677 12.9566 10.7372C13.2822 10.8067 13.5602 10.9208 13.7921 11.0796C14.024 11.2383 14.204 11.449 14.3321 11.7124C14.4601 11.9758 14.5237 12.3006 14.5237 12.6876C14.5237 13.1054 14.4286 13.4536 14.2391 13.7324C14.0497 14.0111 13.7687 14.2394 13.3978 14.4172C13.9084 14.5642 14.2896 14.8218 14.5413 15.189C14.793 15.5563 14.9188 15.9997 14.9188 16.5184C14.9188 16.9361 14.8376 17.2983 14.6752 17.6041C14.5128 17.9099 14.294 18.1594 14.0189 18.3525C13.7438 18.5464 13.4307 18.6891 13.0788 18.782C12.7247 18.8749 12.3596 18.9217 11.9938 18.921H7.97652V10.6325H11.8768ZM11.6448 13.987C11.9697 13.987 12.2367 13.9094 12.446 13.7551C12.6552 13.6 12.7598 13.349 12.7591 13.0008C12.7591 12.8076 12.724 12.6489 12.6545 12.5252C12.585 12.4016 12.492 12.3043 12.3757 12.2348C12.2594 12.1653 12.1262 12.117 11.9755 12.0899C11.8204 12.0628 11.6631 12.0489 11.5051 12.0497H9.79971V13.9885L11.6448 13.987ZM11.7495 17.5039C11.9214 17.5046 12.0926 17.487 12.2601 17.4519C12.4225 17.4168 12.5659 17.359 12.6896 17.2778C12.8132 17.1966 12.912 17.0861 12.9859 16.9471C13.059 16.8081 13.0964 16.6296 13.0964 16.413C13.0964 15.988 12.9764 15.6836 12.7364 15.5022C12.4964 15.32 12.1789 15.2293 11.7846 15.2293H9.79971V17.5046L11.7495 17.5039ZM17.2117 17.3297C17.459 17.5697 17.8153 17.6897 18.2798 17.6897C18.6127 17.6897 18.8988 17.6063 19.1388 17.4402C19.3787 17.2741 19.5258 17.0978 19.5799 16.912H21.0307C20.7988 17.6319 20.4425 18.1462 19.9626 18.4557C19.4826 18.7652 18.9024 18.9203 18.2213 18.9203C17.7494 18.9203 17.3236 18.8449 16.9446 18.6942C16.5657 18.5435 16.2445 18.3284 15.9811 18.0496C15.7177 17.7709 15.5143 17.4387 15.3717 17.0517C15.229 16.6647 15.1573 16.2389 15.1573 15.7751C15.1573 15.3266 15.2305 14.9088 15.3775 14.5218C15.5246 14.1348 15.7338 13.8004 16.0045 13.518C16.2752 13.2356 16.5986 13.0132 16.9739 12.8508C17.3492 12.6884 17.7655 12.6072 18.222 12.6072C18.7327 12.6072 19.1775 12.7059 19.5572 12.9035C19.9362 13.101 20.2479 13.3659 20.4915 13.6987C20.7351 14.0316 20.9115 14.4106 21.0197 14.8364C21.128 15.2622 21.1668 15.707 21.1361 16.1716H16.8064C16.8291 16.7035 16.9644 17.0905 17.2117 17.3297ZM19.0751 14.1728C18.8776 13.9563 18.5776 13.848 18.1752 13.848C17.9118 13.848 17.6931 13.8926 17.5197 13.9811C17.3456 14.0704 17.2066 14.1801 17.1019 14.3118C16.9973 14.4435 16.9242 14.5825 16.8817 14.7296C16.8393 14.8766 16.8137 15.0083 16.8064 15.1239H19.4877C19.4095 14.7069 19.2719 14.3894 19.0751 14.1728ZM16.524 11.0532H19.874V11.9824H16.524V11.0532Z" fill="white"/>
</svg>
