<svg width="29" height="30" viewBox="0 0 29 30" fill="none" xmlns="http://www.w3.org/2000/svg">
<path d="M27.8846 15C27.8846 7.60788 21.8921 1.61538 14.5 1.61538C7.10788 1.61538 1.11538 7.60788 1.11538 15C1.11538 22.3921 7.10788 28.3846 14.5 28.3846C21.8921 28.3846 27.8846 22.3921 27.8846 15ZM29 15C29 23.0081 22.5081 29.5 14.5 29.5C6.49187 29.5 7.18598e-08 23.0081 0 15C0 6.99187 6.49187 0.5 14.5 0.5C22.5081 0.5 29 6.99187 29 15Z" fill="white"/>
<path fill-rule="evenodd" clip-rule="evenodd" d="M22.0501 14.9458C22.0501 10.7407 18.6354 7.34088 14.4452 7.34088C10.2402 7.34088 6.84034 10.7407 6.84034 14.9458C6.84034 19.1508 10.2402 22.5507 14.4452 22.5507C18.6502 22.5507 22.0501 19.1508 22.0501 14.9458ZM14.609 13.4994C13.0582 14.9757 10.881 16.2879 7.88383 17.0931L8.00205 17.4205C8.59018 18.9308 9.68319 20.1908 11.075 20.9701C11.895 17.9133 13.3713 15.6915 15.0564 14.1407C14.9819 14.0364 14.9074 13.9285 14.833 13.8205L14.8327 13.8201C14.7581 13.7119 14.6836 13.6038 14.609 13.4994ZM20.7379 12.0977C19.3214 12.1424 17.5917 12.9625 16.0408 14.2748C17.2039 16.1387 18.024 18.286 18.4415 20.5674C20.2012 19.3149 21.3494 17.2571 21.3494 14.9458C21.3494 13.9318 21.1257 12.9625 20.7379 12.0977ZM9.97161 9.68215C8.48042 10.9496 7.54096 12.8434 7.54096 14.931C7.54096 15.3784 7.5857 15.8108 7.66036 16.2283C10.2102 15.8257 12.4916 14.4538 14.1468 12.8881C12.9091 11.3522 11.4628 10.1593 9.97161 9.68215ZM17.6958 8.84696L17.5696 9.1811C17.0812 10.4145 16.3077 11.7336 15.1459 12.9775C15.31 13.2011 15.474 13.4248 15.638 13.6634C17.1738 12.4108 18.859 11.6802 20.3352 11.3521C19.694 10.3083 18.7843 9.4285 17.6958 8.84696ZM14.4448 8.04179C13.0878 8.04179 11.8204 8.42948 10.7468 9.11542C12.2379 9.95046 13.5501 11.0688 14.6685 12.3811C16.0105 10.9943 16.8456 9.51803 16.935 8.50405C16.1596 8.20581 15.3246 8.04179 14.4448 8.04179ZM15.4594 14.7966C13.6699 16.4966 12.2236 18.8377 11.8955 21.3577C12.6859 21.6709 13.5507 21.8498 14.4454 21.8498C15.5488 21.8498 16.6076 21.5814 17.5321 21.1191C17.4426 19.121 16.6523 16.8246 15.4594 14.7966Z" fill="white"/>
</svg>
