<svg viewBox="0 0 43 46" fill="none" xmlns="http://www.w3.org/2000/svg">
<path fill-rule="evenodd" clip-rule="evenodd" d="M15.2672 9.88709C9.25633 8.79244 4.50323 9.93741 2.60861 13.2192C1.19483 15.6673 1.59877 18.9139 3.58827 22.3833C3.66996 22.5248 3.80435 22.6282 3.96207 22.6709C4.11979 22.7136 4.288 22.6921 4.42992 22.6111C4.57143 22.5294 4.67484 22.395 4.71753 22.2373C4.76023 22.0796 4.73874 21.9114 4.65777 21.7695C2.86592 18.6429 2.51733 15.8419 3.67595 13.8345C5.2572 11.109 9.4892 10.0869 15.0466 11.0989C15.2073 11.1276 15.3729 11.0916 15.5071 10.9987C15.6414 10.9058 15.7334 10.7635 15.7632 10.603C15.7919 10.4422 15.7559 10.2767 15.663 10.1424C15.5701 10.0081 15.4278 9.91682 15.2672 9.88709ZM6.71411 26.5937C9.14492 29.2646 12.3024 31.7702 15.904 33.8495C24.6311 38.8843 33.9138 40.2356 38.4829 37.1162C38.6176 37.0238 38.7102 36.8818 38.7405 36.7212C38.7708 36.5607 38.7363 36.3947 38.6446 36.2595C38.5521 36.1248 38.4101 36.0321 38.2496 36.0018C38.089 35.9715 37.923 36.006 37.7878 36.0978C33.6931 38.8894 24.8748 37.6114 16.5128 32.7879C13.0197 30.7711 9.96142 28.3446 7.6183 25.77C7.50801 25.6494 7.35444 25.5774 7.19119 25.5697C7.02794 25.5621 6.8683 25.6193 6.74717 25.7291C6.62657 25.8394 6.55455 25.9929 6.54688 26.1562C6.5392 26.3194 6.59648 26.4791 6.7062 26.6002L6.71411 26.5937ZM37.0295 25.8513C40.9654 21.2009 42.3397 16.5247 40.4494 13.2516C39.0586 10.8423 36.1182 9.57013 32.2096 9.51981C32.0463 9.51808 31.8889 9.58107 31.7719 9.695C31.6548 9.80894 31.5877 9.96456 31.585 10.1279C31.5833 10.2912 31.6463 10.4486 31.7602 10.5656C31.8741 10.6826 32.0298 10.7498 32.1931 10.7525C35.715 10.7985 38.2414 11.8938 39.3806 13.8682C40.951 16.588 39.7256 20.7582 36.0873 25.0563C35.982 25.1812 35.9304 25.3428 35.9439 25.5056C35.9573 25.6685 36.0347 25.8193 36.1591 25.9253C36.2841 26.0306 36.4456 26.0821 36.6085 26.0687C36.7713 26.0552 36.9222 25.9778 37.0281 25.8534L37.0295 25.8513ZM26.9139 10.0912C23.356 10.8531 19.5668 12.3445 15.9292 14.4447C6.92758 19.6412 1.05539 27.3125 1.86973 32.8612C1.8939 33.0228 1.98102 33.1682 2.11206 33.2657C2.2431 33.3632 2.40741 33.4049 2.56908 33.3816C2.73062 33.3574 2.87602 33.2703 2.97353 33.1393C3.07104 33.0082 3.11271 32.8439 3.08945 32.6823C2.36567 27.7488 7.93167 20.4851 16.5445 15.5041C20.0663 13.4665 23.7413 12.0232 27.1712 11.2879C27.3308 11.2533 27.4702 11.1569 27.5589 11.0198C27.6477 10.8827 27.6785 10.716 27.6448 10.5563C27.6102 10.3967 27.5138 10.2573 27.3767 10.1685C27.2396 10.0798 27.0729 10.0489 26.9131 10.0826L26.9139 10.0912Z"/>
<path fill-rule="evenodd" clip-rule="evenodd" d="M12.3312 36.7152C14.389 42.4616 17.7556 46 21.542 46C24.3034 46 26.8579 44.1169 28.8495 40.8034C28.9333 40.6632 28.9582 40.4955 28.9188 40.337C28.8793 40.1785 28.7787 40.042 28.6389 39.9575C28.4987 39.8737 28.331 39.8488 28.1725 39.8882C28.014 39.9277 27.8775 40.0283 27.793 40.1681C25.9961 43.1458 23.8039 44.7659 21.542 44.7659C18.3975 44.7659 15.3945 41.6034 13.492 36.299C13.4365 36.1454 13.3223 36.0199 13.1746 35.9502C13.0268 35.8804 12.8575 35.872 12.7035 35.9267C12.5499 35.9823 12.4244 36.0964 12.3547 36.2441C12.2849 36.3919 12.2765 36.5612 12.3312 36.7152ZM31.1287 35.5911C32.1939 32.1863 32.766 28.2598 32.766 24.1665C32.766 13.9545 29.1916 5.15128 24.1007 2.89153C23.9512 2.82564 23.7817 2.82161 23.6293 2.88033C23.4768 2.93906 23.3538 3.05575 23.2871 3.20491C23.2212 3.35441 23.2172 3.52392 23.2759 3.67639C23.3346 3.82885 23.4513 3.95186 23.6005 4.01854C28.1416 6.03391 31.5326 14.3894 31.5326 24.1673C31.5326 28.1376 30.9792 31.9413 29.9514 35.2238C29.9029 35.3798 29.9182 35.5487 29.9939 35.6935C30.0696 35.8382 30.1995 35.9472 30.3553 35.9964C30.5113 36.0449 30.6802 36.0296 30.825 35.9539C30.9698 35.8782 31.0787 35.7483 31.128 35.5925L31.1287 35.5911ZM42.7379 34.9873C42.7379 33.3579 41.4169 32.0368 39.7875 32.0368C38.1581 32.0368 36.8298 33.35 36.8298 34.9873C36.8298 36.6246 38.1509 37.9378 39.7803 37.9378C41.4097 37.9378 42.7307 36.6167 42.7307 34.9873H42.7379ZM41.5053 34.9873C41.5051 35.4427 41.3241 35.8793 41.0021 36.2013C40.6802 36.5232 40.2435 36.7042 39.7882 36.7044C39.3328 36.7042 38.8962 36.5232 38.5742 36.2013C38.2522 35.8793 38.0713 35.4427 38.0711 34.9873C38.0713 34.532 38.2522 34.0953 38.5742 33.7734C38.8962 33.4514 39.3328 33.2704 39.7882 33.2702C40.2435 33.2704 40.6802 33.4514 41.0021 33.7734C41.3241 34.0953 41.5051 34.532 41.5053 34.9873Z" />
<path fill-rule="evenodd" clip-rule="evenodd" d="M3.25284 37.9378C4.88225 37.9378 6.20331 36.6167 6.20331 34.9873C6.20331 33.3579 4.88225 32.0368 3.25284 32.0368C2.47033 32.0369 1.71991 32.3479 1.16665 32.9013C0.6134 33.4547 0.302639 34.2052 0.302734 34.9877C0.30283 35.7702 0.613773 36.5206 1.16716 37.0739C1.72055 37.6271 2.47033 37.9379 3.25284 37.9378ZM3.25284 36.7051C2.7975 36.7049 2.36086 36.524 2.03889 36.202C1.71691 35.88 1.53594 35.4434 1.53575 34.988C1.53594 34.5327 1.71691 34.096 2.03889 33.7741C2.36086 33.4521 2.7975 33.2711 3.25284 33.2709C3.70819 33.2711 4.14483 33.4521 4.4668 33.7741C4.78878 34.096 4.96975 34.5327 4.96994 34.988C4.96975 35.4434 4.78878 35.88 4.4668 36.202C4.14483 36.524 3.70819 36.7049 3.25284 36.7051ZM21.5422 5.89375C23.1716 5.89375 24.4926 4.57269 24.4926 2.94328C24.4926 1.31387 23.1708 0 21.5422 0C19.9135 0 18.5917 1.32106 18.5917 2.95047C18.5917 4.57987 19.9127 5.89375 21.5422 5.89375ZM21.5422 4.66109C21.0868 4.6609 20.6502 4.47993 20.3282 4.15796C20.0062 3.83598 19.8253 3.39934 19.8251 2.944C19.8253 2.48866 20.0062 2.05202 20.3282 1.73004C20.6502 1.40807 21.0868 1.2271 21.5422 1.22691C21.9975 1.2271 22.4341 1.40807 22.7561 1.73004C23.0781 2.05202 23.2591 2.48866 23.2592 2.944C23.2591 3.39934 23.0781 3.83598 22.7561 4.15796C22.4341 4.47993 21.9975 4.6609 21.5422 4.66109ZM21.9921 26.2523C21.7173 26.3135 21.4332 26.3198 21.156 26.2707C20.8789 26.2217 20.6141 26.1183 20.3771 25.9665C20.14 25.8147 19.9353 25.6176 19.7747 25.3864C19.6142 25.1552 19.5009 24.8945 19.4415 24.6194C19.3821 24.3442 19.3776 24.0601 19.4285 23.7832C19.4793 23.5063 19.5844 23.2423 19.7377 23.0062C19.891 22.7701 20.0894 22.5667 20.3217 22.4076C20.5539 22.2485 20.8153 22.1369 21.0908 22.0793C21.3655 22.0181 21.6497 22.0119 21.9268 22.0609C22.204 22.11 22.4688 22.2134 22.7058 22.3651C22.9429 22.5169 23.1476 22.7141 23.3081 22.9453C23.4687 23.1765 23.582 23.4371 23.6414 23.7123C23.7008 23.9874 23.7052 24.2716 23.6544 24.5484C23.6036 24.8253 23.4985 25.0893 23.3452 25.3254C23.1919 25.5615 22.9934 25.7649 22.7612 25.924C22.529 26.0831 22.2676 26.1947 21.9921 26.2523Z" />
</svg>
