<svg width="30" height="29" viewBox="0 0 30 29" fill="none" xmlns="http://www.w3.org/2000/svg">
<path d="M28.44 14.5014C28.44 7.10537 22.4443 1.10971 15.0483 1.10971C7.65228 1.10971 1.65658 7.10537 1.65658 14.5014C1.65658 21.8974 7.65228 27.8931 15.0483 27.8931C22.4443 27.8931 28.44 21.8974 28.44 14.5014ZM28.9866 14.5014C28.9866 22.1993 22.7461 28.4397 15.0483 28.4397C7.35041 28.4397 1.10998 22.1993 1.10998 14.5014C1.10998 6.80349 7.35041 0.563107 15.0483 0.563107C22.7461 0.563107 28.9866 6.80349 28.9866 14.5014Z" fill="white"/>
<path fill-rule="evenodd" clip-rule="evenodd" d="M7.80777 6.39832C7.80777 6.39832 9.14745 6.34363 11.7994 7.81999C11.7994 7.81999 14.1506 7.05447 18.1695 7.87466C18.1695 7.87466 19.974 6.42565 21.9697 6.50767C21.9697 6.50767 22.5986 8.20274 22.3252 9.92515C22.3252 9.92515 24.5944 12.1397 23.7195 16.8148C23.7195 16.8148 27.1371 16.8968 27.6292 16.9242C27.7385 16.9242 27.7931 17.1155 27.6565 17.1429C27.513 17.1839 25.3087 17.1941 24.2155 17.1967L23.6102 17.1976L23.5281 17.471H25.0865C26.2348 17.553 27.3558 17.6897 27.4378 17.9084C27.4924 18.0177 27.3558 18.0451 27.219 18.0177C26.6175 17.9357 25.3326 17.6077 23.3367 17.7443C22.6807 18.8926 21.1496 20.5604 18.0329 20.9705C18.2242 21.1892 18.7711 21.6813 18.8257 22.7475L18.8804 27.1493C18.8804 27.5867 18.525 27.9694 18.0602 27.9694C17.6228 27.9694 17.2673 27.6414 17.24 27.2039L17.2127 24.2512C17.2127 24.0052 17.2127 23.7591 17.158 23.431C17.158 23.431 17.1307 23.3217 16.9939 23.2943C16.971 23.3403 16.9673 26.2799 16.9667 27.2193L16.9666 27.5047C16.9666 27.9148 16.6111 28.2702 16.1738 28.2702C15.7363 28.2702 15.3809 27.9148 15.3809 27.4773C15.3809 27.4773 15.4082 23.267 15.3535 23.185C15.2989 23.103 15.1621 23.0756 15.1075 23.185C15.0802 23.267 15.0528 27.5867 15.0528 27.5867C15.0528 28.0241 14.6974 28.3796 14.2599 28.3796C13.8226 28.3796 13.4671 28.0241 13.4671 27.5867V23.2943C13.4671 23.2943 13.2484 23.1576 13.1664 23.5677C13.0843 24.0052 13.1391 27.3953 13.1391 27.3953C13.1391 27.8328 12.8109 28.1608 12.3735 28.1608C11.936 28.1608 11.608 27.8054 11.608 27.3953V24.6067L9.80352 24.5793C9.66687 24.5793 9.55752 24.5793 9.44818 24.552C9.06541 24.47 8.38192 24.2239 7.91712 23.5677C7.91712 23.5677 7.31566 22.7749 6.90559 21.982C6.90559 21.982 6.11263 20.6697 5.56591 20.5057C5.53849 20.5057 5.53849 20.4783 5.56591 20.4783C5.83933 20.4783 6.71421 20.4783 7.671 21.3532C8.73726 22.3374 9.06542 22.5288 9.42075 22.6382C9.53022 22.6655 9.61214 22.6929 9.72148 22.6929L11.6353 22.7475C11.6353 22.7475 11.5807 21.8453 12.5102 20.9705C12.5375 20.9705 12.5375 20.9431 12.5102 20.9431C12.1001 20.8884 8.68265 20.5604 6.9329 17.7717C4.19893 17.6623 2.91386 18.2091 2.83194 18.0177C2.7226 17.7717 4.30827 17.4983 6.76882 17.4436C6.76882 17.4436 6.68678 17.3616 6.57744 17.1702C4.88242 17.0609 2.47648 17.3889 2.47648 17.0609C2.47648 16.8216 5.55347 16.8127 6.32271 16.8142L6.4954 16.8148C6.4954 16.8148 5.21045 12.8779 7.6437 10.1985C7.6437 10.1985 7.17889 8.20274 7.80777 6.39832Z" fill="white"/>
<path d="M28.4207 14.5C28.4207 7.11386 22.433 1.12621 15.0469 1.12621C7.66074 1.12621 1.67309 7.11386 1.67309 14.5C1.67309 21.8861 7.66074 27.8738 15.0469 27.8738C22.433 27.8738 28.4207 21.8861 28.4207 14.5ZM29.5469 14.5C29.5469 22.5081 23.055 29 15.0469 29C7.03875 29 0.546875 22.5081 0.546875 14.5C0.546875 6.49187 7.03875 0 15.0469 0C23.055 0 29.5469 6.49187 29.5469 14.5Z" fill="white"/>
</svg>
