<svg width="30" height="29" viewBox="0 0 30 29" fill="none" xmlns="http://www.w3.org/2000/svg">
<path d="M28.4702 14.5C28.4702 7.10184 22.4728 1.10445 15.0747 1.10445C7.67649 1.10445 1.6791 7.10184 1.6791 14.5C1.6791 21.8982 7.67649 27.8955 15.0747 27.8955C22.4728 27.8955 28.4702 21.8982 28.4702 14.5ZM29.017 14.5C29.017 22.2001 22.7748 28.4423 15.0747 28.4423C7.37453 28.4423 1.13234 22.2001 1.13234 14.5C1.13234 6.79988 7.37453 0.557692 15.0747 0.557692C22.7748 0.557692 29.017 6.79988 29.017 14.5Z" fill="white"/>
<path d="M23.7965 14.0449L23.7711 13.9796L21.3152 7.52583C21.2652 7.39934 21.1768 7.29203 21.0625 7.21932C20.9481 7.14783 20.8147 7.11341 20.6803 7.12068C20.5459 7.12795 20.417 7.17658 20.3109 7.26C20.2059 7.3458 20.1298 7.46208 20.0929 7.59299L18.4347 12.7015H11.72L10.0617 7.59299C10.0257 7.46137 9.94948 7.34451 9.84375 7.25905C9.73766 7.17563 9.6087 7.12701 9.47429 7.11973C9.33988 7.11246 9.20649 7.14689 9.09214 7.21837C8.9781 7.29138 8.88971 7.39859 8.83941 7.52488L6.37882 13.9758L6.3544 14.0411C6.00086 14.9712 5.95722 15.9919 6.23006 16.9491C6.5029 17.9064 7.07742 18.7485 7.86701 19.3483L7.87547 19.3549L7.89801 19.371L11.6392 22.192L13.49 23.6025L14.6174 24.4596C14.7493 24.5604 14.9103 24.615 15.0759 24.615C15.2415 24.615 15.4025 24.5604 15.5344 24.4596L16.6618 23.6025L18.5126 22.192L22.2763 19.3539L22.2857 19.3464C23.0735 18.7465 23.6467 17.9053 23.9191 16.9493C24.1916 15.9933 24.1485 14.9741 23.7965 14.0449Z" fill="white"/>
<path d="M28.4315 14.5C28.4315 7.10788 22.439 1.11538 15.0469 1.11538C7.65476 1.11538 1.66226 7.10788 1.66226 14.5C1.66226 21.8921 7.65476 27.8846 15.0469 27.8846C22.439 27.8846 28.4315 21.8921 28.4315 14.5ZM29.5469 14.5C29.5469 22.5081 23.055 29 15.0469 29C7.03875 29 0.546875 22.5081 0.546875 14.5C0.546875 6.49187 7.03875 0 15.0469 0C23.055 0 29.5469 6.49187 29.5469 14.5Z" fill="white"/>
</svg>
