<svg viewBox="0 0 128 120" xmlns="http://www.w3.org/2000/svg">
<path fill-rule="evenodd" clip-rule="evenodd" d="M128 31.3649V31.8627V33.1572L127.9 92.6011C127.9 97.0818 125 101.065 120.7 102.459L75.2 117.295L74.4 117.494L72.7 118.091C72.65 118.091 72.6 118.116 72.55 118.141C72.5 118.166 72.45 118.191 72.4 118.191L68.6 119.386C65.8 120.282 62.9 120.182 60.2 119.187L55.4 117.394L6.9 99.7702C2.8 98.1771 0 94.2938 0 89.9127V29.5726V23.5983C0 21.0095 1.7 18.6198 4.2 17.8232L8.8 16.3297H8.9L57.3 0.796569C58.9 0.298713 60.5 0 62.2 0C64.1 0 65.9 0.398284 67.6 0.995711L116.6 18.8189L124 21.4078C126.4 22.2043 128 24.4945 128 26.9838V31.3649ZM62.2001 2.29001C60.8001 2.29001 59.4001 2.58872 58.1001 2.98701L9.70006 18.6197C7.40006 19.4162 7.30006 22.7021 9.60006 23.4986L58.6001 41.0231C60.2001 41.6206 62.0001 41.9193 63.7001 41.9193C65.2001 41.9193 66.8001 41.7201 68.3001 41.2223L97.4001 31.8626L116.7 25.5896C118.4 24.5939 118.3 21.8059 116.2 21.0094L66.8001 3.08658C65.3001 2.58872 63.7001 2.29001 62.2001 2.29001ZM2.39986 89.9127L2.49986 29.6722C2.49986 27.1829 4.49986 25.2911 6.89986 25.2911C7.39986 25.2911 7.89986 25.3906 8.39986 25.5898L57.7999 43.5126C61.0999 44.7074 63.2999 47.8937 63.2999 51.3787L63.1999 111.121C63.1999 113.71 61.0999 115.602 58.6999 115.602C58.1999 115.602 57.6999 115.502 57.0999 115.303L7.69986 97.3805C4.49986 96.2852 2.39986 93.2981 2.39986 89.9127ZM119.9 100.069C123.3 98.9737 125.5 95.887 125.5 92.402L125.6 31.2654C125.6 28.7761 123.5 26.8842 121.2 26.8842C120.869 26.8842 120.537 26.9526 120.149 27.0326C120.069 27.0492 119.986 27.0663 119.9 27.0834L117.6 27.8799C117.45 27.9297 117.325 27.9795 117.2 28.0293C117.075 28.0791 116.95 28.1289 116.8 28.1787L98.1001 34.2525L71.6001 42.9152C68.1001 44.0105 65.7001 47.2963 65.7001 50.9804L65.6001 111.121C65.6001 113.81 67.8001 115.901 70.4001 115.901H70.4002C70.9002 115.901 71.4002 115.901 71.9001 115.702L119.9 100.069Z" />
<path d="M35.3898 47.0665C32.7458 46.0711 30.3051 45.7725 28.1695 46.1706C26.0339 46.5688 24.2034 47.4647 22.678 49.0573C21.1525 50.65 20.0339 52.7403 19.2203 55.3284C18.4068 58.016 18 61.1018 18 64.7848C18 68.4678 18.4068 71.8522 19.2203 75.137C20.0339 78.4219 21.1525 81.3085 22.678 83.8966C24.2034 86.4847 26.0339 88.7741 28.2712 90.6654C30.5085 92.5567 32.9492 93.9502 35.6949 94.9456C38.2373 95.8415 40.4746 96.1401 42.4068 95.941C44.4407 95.742 46.2712 95.1447 48 94.1493V78.2228L38.9492 75.0375V75.9333C38.9492 76.0329 38.9492 76.232 39.0508 76.3315C39.1525 76.431 39.2542 76.5306 39.3559 76.6301L46.7797 79.2182V92.9548C45.9661 93.353 45.0508 93.6516 44.2373 93.9502C43.4237 94.1493 42.5085 94.3484 41.6949 94.4479C40.7797 94.5475 39.8644 94.4479 38.8475 94.3484C37.8305 94.1493 36.8136 93.9502 35.6949 93.5521C33.1525 92.6562 30.9153 91.3622 28.8814 89.5704C26.8475 87.7787 25.1186 85.6883 23.7966 83.2994C22.3729 80.8108 21.3559 78.1232 20.5424 75.137C19.8305 72.1508 19.4237 68.8659 19.4237 65.382C19.4237 61.8981 19.8305 58.9119 20.5424 56.4233C21.2542 53.9348 22.3729 51.944 23.6949 50.5504C25.1186 49.1569 26.7458 48.261 28.678 47.9624C30.6102 47.6638 32.8475 47.9624 35.2881 48.7587C37.2203 49.4555 38.7458 50.2518 40.0678 51.2472C41.3898 52.2426 42.5085 53.1385 43.322 54.0344C44.1356 54.9302 44.8475 55.7266 45.2542 56.3238C45.661 57.0206 45.9661 57.4188 46.1695 57.5183C46.2712 57.5183 46.2712 57.6178 46.3729 57.6178C46.5763 57.7174 46.678 57.6178 46.7797 57.4188L47.0847 56.8215C46.2712 55.627 45.4576 54.5321 44.6441 53.5367C43.8305 52.5413 42.9153 51.6454 42 50.8491C41.0847 50.0527 40.0678 49.3559 38.9492 48.7587C37.8305 48.0619 36.6102 47.5642 35.3898 47.0665" />
<path d="M98.5641 46.9819C95.6923 47.8883 93.1282 49.2982 90.8718 51.1109C88.6154 52.9236 86.6667 55.2399 85.0256 57.7576C83.3846 60.376 82.1538 63.2965 81.3333 66.5191C80.5128 69.7417 80 73.2665 80 76.892C80 80.6181 80.4103 83.7401 81.3333 86.4592C82.1538 89.1783 83.4872 91.2931 85.0256 92.9044C86.6667 94.5157 88.6154 95.4221 90.9744 95.8249C93.3333 96.2278 95.8974 95.9256 98.8718 95.0193C101.538 94.2136 103.897 92.9044 106.051 91.3938C108.205 89.7825 110.154 87.8691 112 85.7542V69.641L102.359 72.6623V73.5686C102.359 73.6693 102.359 73.77 102.462 73.8707C102.564 73.9714 102.667 73.9714 102.769 73.9714L110.667 71.4538V85.3514C109.744 86.3584 108.923 87.2648 108 88.0705C107.077 88.8761 106.256 89.6818 105.231 90.286C104.308 90.991 103.282 91.5952 102.256 92.0988C101.231 92.6023 100.103 93.1058 98.8718 93.5087C96.2051 94.415 93.7436 94.6164 91.5897 94.2136C89.4359 93.8108 87.5897 92.9044 86.1538 91.4945C84.6154 89.9839 83.4872 87.9698 82.7692 85.4521C81.9487 82.9344 81.5385 79.9132 81.5385 76.3884C81.5385 72.8637 81.9487 69.641 82.7692 66.5191C83.5897 63.4979 84.7179 60.7788 86.1538 58.3618C87.5897 55.9448 89.4359 53.9307 91.4872 52.2187C93.5385 50.5067 95.8974 49.2982 98.4615 48.4925C100.513 47.8883 102.154 47.5861 103.59 47.5861C105.026 47.5861 106.154 47.7876 107.077 48.0897C108 48.3918 108.615 48.6939 109.128 49.0967C109.641 49.4996 109.949 49.701 110.051 49.701C110.154 49.701 110.154 49.701 110.256 49.701C110.462 49.6003 110.564 49.4996 110.667 49.2982L111.077 48.4925C110.256 47.8883 109.436 47.284 108.513 46.8812C107.59 46.4784 106.667 46.1762 105.641 46.0755C104.615 45.9748 103.59 45.9748 102.359 46.0755C101.231 46.1762 100 46.4784 98.5641 46.9819" />
</svg>
