<svg width="65" height="60" viewBox="0 0 65 60" fill="none" xmlns="http://www.w3.org/2000/svg">
<path fill-rule="evenodd" clip-rule="evenodd" d="M31.3447 0C32.2947 0 33.195 0.199356 34.0449 0.498047L58.5449 9.40918L62.2451 10.7041C63.4451 11.1024 64.2451 12.2476 64.2451 13.4922V16.5781L64.1953 46.3008C64.1952 48.541 62.7447 50.5325 60.5947 51.2295L37.8447 58.6475L37.4453 58.7471L36.5947 59.0459C36.5449 59.0462 36.4951 59.0956 36.4453 59.0957L34.5449 59.6924C33.1449 60.1404 31.6947 60.0916 30.3447 59.5938L27.9453 58.6973L3.69531 49.8848C1.64531 49.0882 0.245117 47.1466 0.245117 44.9561V11.7988C0.245267 10.5046 1.09496 9.30945 2.34473 8.91113L4.64551 8.16504H4.69531L28.8955 0.398438C29.6953 0.149606 30.495 4.58658e-05 31.3447 0ZM60.8447 13.4424C60.6449 13.4424 60.4451 13.4922 60.1953 13.542L59.0449 13.9404C58.895 13.9902 58.7945 14.0401 58.6445 14.0898L49.2949 17.127L36.0449 21.458C34.295 22.0056 33.0948 23.6483 33.0947 25.4902L33.0449 55.5605C33.0449 56.9048 34.1453 57.9502 35.4453 57.9502C35.6952 57.9502 35.9454 57.9511 36.1953 57.8516L60.1953 50.0352C61.8952 49.4874 62.9951 47.9436 62.9951 46.2012L63.0449 15.6328C63.0448 14.3882 61.9947 13.4424 60.8447 13.4424Z" fill="white" fill-opacity="0.64"/>
<path d="M49.5272 23.4909C48.0913 23.9441 46.8092 24.649 45.681 25.5554C44.5528 26.4617 43.5785 27.6199 42.7579 28.8787C41.9374 30.1879 41.3221 31.6482 40.9118 33.2595C40.5015 34.8708 40.2451 36.6332 40.2451 38.4459C40.2451 40.309 40.4503 41.87 40.9118 43.2295C41.3221 44.5891 41.9887 45.6465 42.7579 46.4521C43.5785 47.2578 44.5528 47.711 45.7323 47.9124C46.9118 48.1138 48.1938 47.9628 49.681 47.5096C51.0144 47.1067 52.1938 46.4521 53.2708 45.6968C54.3477 44.8912 55.3221 43.9345 56.2451 42.877V34.8205L51.4246 36.3311V36.7842C51.4246 36.8346 51.4246 36.885 51.4759 36.9353C51.5272 36.9857 51.5785 36.9857 51.6297 36.9857L55.5785 35.7268V42.6756C55.1169 43.1792 54.7067 43.6323 54.2451 44.0352C53.7836 44.438 53.3733 44.8408 52.8605 45.143C52.399 45.4954 51.8862 45.7975 51.3733 46.0493C50.8605 46.3011 50.2964 46.5529 49.681 46.7543C48.3477 47.2075 47.1169 47.3082 46.04 47.1067C44.9631 46.9053 44.04 46.4521 43.3221 45.7472C42.5528 44.9919 41.9887 43.9848 41.6297 42.726C41.2195 41.4671 41.0144 39.9565 41.0144 38.1941C41.0144 36.4318 41.2195 34.8205 41.6297 33.2595C42.04 31.7489 42.6041 30.3893 43.3221 29.1808C44.04 27.9724 44.9631 26.9653 45.9887 26.1093C47.0144 25.2533 48.1938 24.649 49.4759 24.2462C50.5015 23.9441 51.3221 23.793 52.04 23.793C52.7579 23.793 53.3221 23.8937 53.7836 24.0448C54.2451 24.1958 54.5528 24.3469 54.8092 24.5483C55.0656 24.7497 55.2195 24.8504 55.2708 24.8504C55.3221 24.8504 55.3221 24.8504 55.3733 24.8504C55.4759 24.8001 55.5272 24.7497 55.5785 24.649L55.7836 24.2462C55.3733 23.9441 54.9631 23.6419 54.5015 23.4405C54.04 23.2391 53.5785 23.0881 53.0656 23.0377C52.5528 22.9873 52.04 22.9873 51.4246 23.0377C50.8605 23.0881 50.2451 23.2391 49.5272 23.4909Z" fill="white" fill-opacity="0.64"/>
</svg>
