<svg width="66" height="62" viewBox="0 0 66 62" fill="none" xmlns="http://www.w3.org/2000/svg">
<path d="M0.500977 12.7988C0.501126 11.2914 1.48772 9.90125 2.94922 9.43555L5.24609 8.68945L5.32227 8.66504H5.37109L29.498 0.921875L29.502 0.920898C30.339 0.660439 31.1901 0.500046 32.1006 0.5C32.9937 0.5 33.8386 0.663937 34.6309 0.914062L34.9668 1.02637L34.9717 1.02832L59.4717 9.93945L63.1572 11.2295C64.5668 11.6973 65.501 13.0375 65.501 14.4922V17.5781L65.4512 47.3018C65.4506 49.7598 63.8593 51.9408 61.5049 52.7041L61.5059 52.7051L38.7559 60.123L38.6006 59.6475L38.7217 60.1328L38.3447 60.2256L37.4365 60.5459C37.4293 60.5489 37.4209 60.5528 37.4131 60.5557C37.3893 60.5646 37.356 60.5749 37.3154 60.583L35.4512 61.1699L35.4502 61.1689C33.9418 61.651 32.3784 61.5975 30.9277 61.0625L30.9258 61.0615L28.5264 60.166L4.26953 51.3516C2.03848 50.4846 0.500977 48.3645 0.500977 45.9561V12.7988ZM1.50098 45.9561C1.50098 47.9265 2.76059 49.6883 4.62598 50.416L28.8721 59.2275L28.7285 59.623L28.876 59.2285L31.2734 60.124C32.5218 60.5844 33.8578 60.6298 35.1484 60.2168L35.1514 60.2158L37.0508 59.6182L37.0928 59.6045C37.1063 59.5984 37.122 59.5912 37.1387 59.585C37.1608 59.5767 37.1909 59.5665 37.2275 59.5586L38.0352 59.2754L38.0576 59.2676L38.0801 59.2617L38.4619 59.166L61.1963 51.7539C63.1412 51.1232 64.4511 49.3227 64.4512 47.3008L64.501 17.5781V14.4922C64.501 13.4578 63.834 12.5076 62.8438 12.1787L62.8359 12.1758L59.1357 10.8818L59.1299 10.8789L34.6348 1.96973L34.3291 1.86719C33.6119 1.64083 32.87 1.5 32.1006 1.5C31.3114 1.50005 30.5624 1.63869 29.7998 1.87598L29.7988 1.875L5.60352 9.64062L5.45117 9.16504V9.31836L5.55566 9.64062L3.25586 10.3867L3.25293 10.3877C2.21469 10.7185 1.50113 11.7177 1.50098 12.7988V45.9561Z" fill="white" fill-opacity="0.64"/>
<path fill-rule="evenodd" clip-rule="evenodd" d="M61.5996 14.4414C62.7496 14.4414 63.7998 15.3882 63.7998 16.6328L63.75 47.2012C63.7498 48.9434 62.6499 50.4865 60.9502 51.0342L36.9502 58.8506C36.7003 58.9501 36.4501 58.9502 36.2002 58.9502C34.9002 58.9502 33.7999 57.9047 33.7998 56.5605L33.8496 26.4902C33.8496 24.6482 35.0498 23.0047 36.7998 22.457L50.0498 18.126L59.3994 15.0889C59.5494 15.0391 59.6498 14.9892 59.7998 14.9395L60.9502 14.541C61.1999 14.4913 61.3998 14.4414 61.5996 14.4414ZM53.8213 24.0381C53.3086 23.9878 52.7959 23.9878 52.1807 24.0381C51.6166 24.0884 51.0011 24.2395 50.2832 24.4912C48.8473 24.9444 47.5647 25.6493 46.4365 26.5557C45.3085 27.462 44.3341 28.6202 43.5137 29.8789C42.6932 31.1881 42.0782 32.6485 41.668 34.2598C41.2577 35.8711 41.001 37.6336 41.001 39.4463C41.001 41.3092 41.2065 42.87 41.668 44.2295C42.0782 45.589 42.7445 46.6465 43.5137 47.4521C44.3342 48.2578 45.3088 48.7107 46.4883 48.9121C47.6677 49.1135 48.9495 48.9629 50.4365 48.5098C51.7697 48.107 52.9495 47.4525 54.0264 46.6973C55.1033 45.8916 56.0779 44.9344 57.001 43.877V35.8203L52.1807 37.3311V37.7842C52.1807 37.8345 52.1802 37.8852 52.2314 37.9355C52.2827 37.9859 52.3345 37.9854 52.3857 37.9854L56.334 36.7266V43.6758C55.8725 44.1792 55.4624 44.6324 55.001 45.0352C54.5395 45.438 54.129 45.8405 53.6162 46.1426C53.1547 46.4951 52.6417 46.798 52.1289 47.0498C51.6162 47.3015 51.0518 47.5525 50.4365 47.7539C49.1033 48.207 47.8728 48.3079 46.7959 48.1064C45.719 47.905 44.7961 47.452 44.0781 46.7471C43.3089 45.9918 42.7447 44.9844 42.3857 43.7256C41.9756 42.4668 41.7705 40.9565 41.7705 39.1943C41.7705 37.432 41.9755 35.8207 42.3857 34.2598C42.796 32.7492 43.3602 31.3892 44.0781 30.1807C44.796 28.9724 45.7187 27.9653 46.7441 27.1094C47.7697 26.2534 48.9495 25.6489 50.2314 25.2461C51.2571 24.944 52.0779 24.793 52.7959 24.793C53.5137 24.793 54.0776 24.8939 54.5391 25.0449C55.0006 25.196 55.309 25.3474 55.5654 25.5488C55.8212 25.7497 55.9749 25.8503 56.0264 25.8506H56.1289C56.2313 25.8003 56.2828 25.7499 56.334 25.6494L56.5391 25.2461C56.129 24.9441 55.7191 24.6418 55.2578 24.4404C54.7963 24.239 54.3341 24.0884 53.8213 24.0381Z" fill="white" fill-opacity="0.64"/>
<path d="M18.6954 24.5333C17.3734 24.0356 16.153 23.8862 15.0852 24.0853C14.0174 24.2844 13.1022 24.7323 12.3395 25.5287C11.5768 26.325 11.0174 27.3702 10.6107 28.6642C10.2039 30.008 10.0005 31.5509 10.0005 33.3924C10.0005 35.2339 10.2039 36.9261 10.6107 38.5685C11.0174 40.2109 11.5768 41.6543 12.3395 42.9483C13.1022 44.2423 14.0174 45.3871 15.1361 46.3327C16.2547 47.2783 17.4751 47.9751 18.8479 48.4728C20.1191 48.9208 21.2378 49.0701 22.2039 48.9705C23.2208 48.871 24.1361 48.5724 25.0005 48.0747V40.1114L20.4751 38.5187V38.9667C20.4751 39.0164 20.4751 39.116 20.5259 39.1658C20.5768 39.2155 20.6276 39.2653 20.6785 39.3151L24.3903 40.6091V47.4774C23.9835 47.6765 23.5259 47.8258 23.1191 47.9751C22.7124 48.0747 22.2547 48.1742 21.8479 48.224C21.3903 48.2737 20.9327 48.224 20.4242 48.1742C19.9157 48.0747 19.4073 47.9751 18.8479 47.776C17.5768 47.3281 16.4581 46.6811 15.4412 45.7852C14.4242 44.8894 13.5598 43.8442 12.8988 42.6497C12.1869 41.4054 11.6785 40.0616 11.2717 38.5685C10.9157 37.0754 10.7124 35.433 10.7124 33.691C10.7124 31.949 10.9157 30.4559 11.2717 29.2117C11.6276 27.9674 12.1869 26.972 12.8479 26.2752C13.5598 25.5784 14.3734 25.1305 15.3395 24.9812C16.3056 24.8319 17.4242 24.9812 18.6446 25.3794C19.6107 25.7277 20.3734 26.1259 21.0344 26.6236C21.6954 27.1213 22.2547 27.5692 22.6615 28.0172C23.0683 28.4651 23.4242 28.8633 23.6276 29.1619C23.831 29.5103 23.9835 29.7094 24.0852 29.7591C24.1361 29.7591 24.1361 29.8089 24.1869 29.8089C24.2886 29.8587 24.3395 29.8089 24.3903 29.7094L24.5429 29.4108C24.1361 28.8135 23.7293 28.266 23.3225 27.7683C22.9157 27.2706 22.4581 26.8227 22.0005 26.4245C21.5429 26.0264 21.0344 25.678 20.4751 25.3794C19.9157 25.031 19.3056 24.7821 18.6954 24.5333" fill="white" fill-opacity="0.64"/>
</svg>
