<svg width="29" height="29" viewBox="0 0 29 29" fill="none" xmlns="http://www.w3.org/2000/svg">
<path d="M20.6733 15.99V20.59H18.0274V16.2973C18.0274 15.2198 17.6447 14.4845 16.6866 14.4845C15.9557 14.4845 15.5198 14.9797 15.3285 15.4599C15.2593 15.6316 15.2408 15.8705 15.2408 16.1094V20.59H12.5937C12.5937 20.59 12.6295 13.3211 12.5937 12.5683H15.2408V13.7043L15.2235 13.7304H15.2408V13.7043C15.5927 13.1569 16.2199 12.3792 17.6261 12.3792C19.367 12.3792 20.6733 13.5264 20.6733 15.99ZM9.82437 8.69998C8.91937 8.69998 8.32673 9.2997 8.32673 10.0861C8.32673 10.8575 8.90208 11.4734 9.7898 11.4734H9.80708C10.7306 11.4734 11.3047 10.8563 11.3047 10.0861C11.2874 9.2997 10.7306 8.69998 9.82437 8.69998ZM8.48353 20.59H11.1306V12.5683H8.48353V20.59Z" fill="white"/>
<path d="M27.5644 14.5C27.5644 7.1325 21.651 1.16 14.3564 1.16C7.0619 1.16 1.14851 7.1325 1.14851 14.5C1.14851 21.8674 7.0619 27.8399 14.3564 27.8399V28.9999C6.4276 28.9999 0 22.5081 0 14.5C0 6.49186 6.4276 0 14.3564 0C22.2853 0 28.7129 6.49186 28.7129 14.5C28.7129 22.5081 22.2853 28.9999 14.3564 28.9999V27.8399C21.651 27.8399 27.5644 21.8674 27.5644 14.5Z" fill="white"/>
</svg>
