<svg width="128" height="120" viewBox="0 0 128 120" fill="none" xmlns="http://www.w3.org/2000/svg">
<path fill-rule="evenodd" clip-rule="evenodd" d="M128 31.3649V31.8627V33.1572L127.9 92.6011C127.9 97.0818 125 101.065 120.7 102.459L75.2 117.295L74.4 117.494L72.7 118.091C72.65 118.091 72.6 118.116 72.55 118.141C72.5 118.166 72.45 118.191 72.4 118.191L68.6 119.386C65.8 120.282 62.9 120.182 60.2 119.187L55.4 117.394L6.9 99.7702C2.8 98.1771 0 94.2938 0 89.9127V29.5726V23.5983C0 21.0095 1.7 18.6198 4.2 17.8232L8.8 16.3297H8.9L57.3 0.796569C58.9 0.298713 60.5 0 62.2 0C64.1 0 65.9 0.398284 67.6 0.995711L116.6 18.8189L124 21.4078C126.4 22.2043 128 24.4945 128 26.9838V31.3649ZM62.2001 2.29001C60.8001 2.29001 59.4001 2.58872 58.1001 2.98701L9.70006 18.6197C7.40006 19.4162 7.30006 22.7021 9.60006 23.4986L58.6001 41.0231C60.2001 41.6206 62.0001 41.9193 63.7001 41.9193C65.2001 41.9193 66.8001 41.7201 68.3001 41.2223L97.4001 31.8626L116.7 25.5896C118.4 24.5939 118.3 21.8059 116.2 21.0094L66.8001 3.08658C65.3001 2.58872 63.7001 2.29001 62.2001 2.29001ZM2.39986 89.9127L2.49986 29.6722C2.49986 27.1829 4.49986 25.2911 6.89986 25.2911C7.39986 25.2911 7.89986 25.3906 8.39986 25.5898L57.7999 43.5126C61.0999 44.7074 63.2999 47.8937 63.2999 51.3787L63.1999 111.121C63.1999 113.71 61.0999 115.602 58.6999 115.602C58.1999 115.602 57.6999 115.502 57.0999 115.303L7.69986 97.3805C4.49986 96.2852 2.39986 93.2981 2.39986 89.9127ZM119.9 100.069C123.3 98.9737 125.5 95.887 125.5 92.402L125.6 31.2654C125.6 28.7761 123.5 26.8842 121.2 26.8842C120.869 26.8842 120.537 26.9526 120.149 27.0326C120.069 27.0492 119.986 27.0663 119.9 27.0834L117.6 27.8799C117.45 27.9297 117.325 27.9795 117.2 28.0293C117.075 28.0791 116.95 28.1289 116.8 28.1787L98.1001 34.2525L71.6001 42.9152C68.1001 44.0105 65.7001 47.2963 65.7001 50.9804L65.6001 111.121C65.6001 113.81 67.8001 115.901 70.4001 115.901H70.4002C70.9002 115.901 71.4002 115.901 71.9001 115.702L119.9 100.069Z" fill="black"/>
<path d="M112.7 45.79C112.36 45.91 111.97 46.16 111.63 47.09L99.1301 79.74L86.7701 56.04C86.4301 55.36 86.0401 55.39 85.7001 55.51C85.1601 55.7 84.9201 56.22 84.9201 56.76L84.8301 97.12L86.2401 96.61L86.3201 58.78L97.6701 80.59C98.0601 81.36 98.4501 81.7 99.1301 81.46C99.8101 81.22 100.2 80.59 100.59 79.54L112.05 49.51L111.97 87.34L113.38 86.83L113.47 46.47C113.47 45.93 113.23 45.59 112.7 45.78" fill="black"/>
<path d="M45.5599 54.5C45.2399 54.37 44.8599 54.34 44.5399 55.05L32.5899 79.52L20.6699 45.82C20.3399 44.86 19.9699 44.61 19.6399 44.48C19.1299 44.28 18.8999 44.63 18.8999 45.19V86.86L20.2399 87.38V48.32L31.1899 79.32C31.5699 80.41 31.9399 81.05 32.5899 81.3C33.2399 81.55 33.6199 81.2 33.9899 80.4L44.9499 57.87V96.93L46.2899 97.45V55.78C46.2999 55.22 46.0699 54.69 45.5599 54.49" fill="black"/>
</svg>
