<svg width="65" height="60" viewBox="0 0 65 60" fill="none" xmlns="http://www.w3.org/2000/svg">
<path fill-rule="evenodd" clip-rule="evenodd" d="M31.3403 0C32.2903 0 33.1906 0.199356 34.0405 0.498047L58.5405 9.40918L62.2407 10.7041C63.4407 11.1024 64.2407 12.2476 64.2407 13.4922V16.5781L64.1909 46.3008C64.1908 48.541 62.7403 50.5325 60.5903 51.2295L37.8403 58.6475L37.4409 58.7471L36.5903 59.0459C36.5405 59.0462 36.4907 59.0956 36.4409 59.0957L34.5405 59.6924C33.1405 60.1404 31.6903 60.0916 30.3403 59.5938L27.9409 58.6973L3.69092 49.8848C1.64092 49.0882 0.240723 47.1466 0.240723 44.9561V11.7988C0.240873 10.5046 1.09056 9.30945 2.34033 8.91113L4.64111 8.16504H4.69092L28.8911 0.398438C29.6909 0.149606 30.4906 4.58658e-05 31.3403 0ZM60.8403 13.4424C60.6405 13.4424 60.4407 13.4922 60.1909 13.542L59.0405 13.9404C58.8906 13.9902 58.7901 14.0401 58.6401 14.0898L49.2905 17.127L36.0405 21.458C34.2906 22.0056 33.0904 23.6483 33.0903 25.4902L33.0405 55.5605C33.0405 56.9048 34.1409 57.9502 35.4409 57.9502C35.6908 57.9502 35.941 57.9511 36.1909 57.8516L60.1909 50.0352C61.8908 49.4874 62.9907 47.9436 62.9907 46.2012L63.0405 15.6328C63.0405 14.3882 61.9903 13.4424 60.8403 13.4424Z" fill="white" fill-opacity="0.64"/>
<path d="M56.5909 22.8944C56.4209 22.9544 56.2259 23.0794 56.0559 23.5444L49.8059 39.8694L43.6259 28.0194C43.4559 27.6794 43.2609 27.6944 43.0909 27.7544C42.8209 27.8494 42.7009 28.1094 42.7009 28.3794L42.6559 48.5594L43.3609 48.3044L43.4009 29.3894L49.0759 40.2944C49.2709 40.6794 49.4659 40.8494 49.8059 40.7294C50.1459 40.6094 50.3409 40.2944 50.5359 39.7694L56.2659 24.7544L56.2259 43.6694L56.9309 43.4144L56.9759 23.2344C56.9759 22.9644 56.8559 22.7944 56.5909 22.8894" fill="white" fill-opacity="0.64"/>
</svg>
