<svg width="66" height="62" viewBox="0 0 66 62" fill="none" xmlns="http://www.w3.org/2000/svg">
<path d="M0.740234 12.7988C0.740384 11.2914 1.72698 9.90125 3.18848 9.43555L5.48535 8.68945L5.56152 8.66504H5.61035L29.7373 0.921875L29.7412 0.920898C30.5783 0.660439 31.4293 0.500046 32.3398 0.5C33.233 0.5 34.0779 0.663937 34.8701 0.914062L35.2061 1.02637L35.2109 1.02832L59.7109 9.93945L63.3965 11.2295C64.806 11.6973 65.7402 13.0375 65.7402 14.4922V17.5781L65.6904 47.3018C65.6899 49.7598 64.0985 51.9408 61.7441 52.7041L61.7451 52.7051L38.9951 60.123L38.8398 59.6475L38.9609 60.1328L38.584 60.2256L37.6758 60.5459C37.6685 60.5489 37.6601 60.5528 37.6523 60.5557C37.6285 60.5646 37.5953 60.5749 37.5547 60.583L35.6904 61.1699L35.6895 61.1689C34.181 61.651 32.6176 61.5975 31.167 61.0625L31.165 61.0615L28.7656 60.166L4.50879 51.3516C2.27774 50.4846 0.740234 48.3645 0.740234 45.9561V12.7988ZM1.74023 45.9561C1.74023 47.9265 2.99985 49.6883 4.86523 50.416L29.1113 59.2275L28.9678 59.623L29.1152 59.2285L31.5127 60.124C32.7611 60.5844 34.0971 60.6298 35.3877 60.2168L35.3906 60.2158L37.29 59.6182L37.332 59.6045C37.3455 59.5984 37.3613 59.5912 37.3779 59.585C37.4 59.5767 37.4301 59.5665 37.4668 59.5586L38.2744 59.2754L38.2969 59.2676L38.3193 59.2617L38.7012 59.166L61.4355 51.7539C63.3805 51.1232 64.6903 49.3227 64.6904 47.3008L64.7402 17.5781V14.4922C64.7402 13.4578 64.0733 12.5076 63.083 12.1787L63.0752 12.1758L59.375 10.8818L59.3691 10.8789L34.874 1.96973L34.5684 1.86719C33.8512 1.64083 33.1093 1.5 32.3398 1.5C31.5507 1.50005 30.8017 1.63869 30.0391 1.87598L30.0381 1.875L5.84277 9.64062L5.69043 9.16504V9.31836L5.79492 9.64062L3.49512 10.3867L3.49219 10.3877C2.45394 10.7185 1.74039 11.7177 1.74023 12.7988V45.9561Z" fill="white" fill-opacity="0.64"/>
<path fill-rule="evenodd" clip-rule="evenodd" d="M61.8408 14.4424C62.9907 14.4425 64.0409 15.3883 64.041 16.6328L63.9902 47.2012C63.9902 48.9437 62.8904 50.4875 61.1904 51.0352L37.1904 58.8516C36.9405 58.951 36.6903 58.9502 36.4404 58.9502C35.1405 58.9501 34.04 57.9047 34.04 56.5605L34.0908 26.4902C34.0909 24.6483 35.2911 23.0056 37.041 22.458L50.291 18.127L59.6406 15.0898C59.7906 15.0401 59.891 14.9902 60.041 14.9404L61.1904 14.542C61.4404 14.4922 61.6408 14.4424 61.8408 14.4424ZM57.9756 24.2344C57.9756 23.9644 57.8558 23.7946 57.5908 23.8896L57.5264 23.9209C57.3728 23.9913 57.2044 24.1372 57.0557 24.5439L50.8057 40.8691L44.626 29.0195C44.456 28.6797 44.2608 28.694 44.0908 28.7539C43.821 28.8489 43.7013 29.1091 43.7012 29.3789L43.6562 49.5596L44.3604 49.3047L44.4004 30.3896L50.0762 41.2939C50.2711 41.6789 50.4657 41.8494 50.8057 41.7295C51.1457 41.6095 51.3411 41.2945 51.5361 40.7695L57.2656 25.7539L57.2256 44.6689L57.9307 44.4141L57.9756 24.2344Z" fill="white" fill-opacity="0.64"/>
<path d="M24.0199 28.2503C23.8599 28.1853 23.6699 28.1703 23.5099 28.5253L17.5349 40.7603L11.5749 23.9103C11.4099 23.4303 11.2249 23.3053 11.0599 23.2403C10.8049 23.1403 10.6899 23.3153 10.6899 23.5953V44.4303L11.3599 44.6903V25.1603L16.8349 40.6603C17.0249 41.2053 17.2099 41.5253 17.5349 41.6503C17.8599 41.7753 18.0499 41.6003 18.2349 41.2003L23.7149 29.9353V49.4653L24.3849 49.7253V28.8903C24.3899 28.6103 24.2749 28.3453 24.0199 28.2453" fill="white" fill-opacity="0.64"/>
</svg>
