<svg viewBox="0 0 47 48" fill="none" xmlns="http://www.w3.org/2000/svg">
<path d="M21.8815 0.665922C21.7808 0.675077 21.4603 0.707116 21.1719 0.730001C14.5205 1.32959 8.29024 4.91799 4.34425 10.4333C2.14695 13.4999 0.741589 16.9785 0.210575 20.663C0.0228886 21.9492 0 22.3291 0 24.0729C0 25.8168 0.0228886 26.1967 0.210575 27.4828C1.48318 36.2753 7.74091 43.6626 16.228 46.3997C17.7478 46.8895 19.35 47.2236 21.1719 47.425C21.8815 47.5028 24.9485 47.5028 25.6581 47.425C28.803 47.0771 31.4672 46.299 34.0948 44.9579C34.4976 44.752 34.5755 44.697 34.5205 44.6513C34.4839 44.6238 32.7673 42.3216 30.7073 39.5387L26.9627 34.4811L22.2706 27.5377C19.6887 23.7205 17.5647 20.5989 17.5464 20.5989C17.5281 20.5944 17.5098 23.6793 17.5006 27.4462C17.4869 34.0417 17.4823 34.3072 17.3999 34.4628C17.2809 34.6871 17.1893 34.7786 16.997 34.8793C16.8506 34.9525 16.7224 34.9663 16.0312 34.9663H15.2392L15.0286 34.8335C14.8913 34.7466 14.7906 34.6321 14.7219 34.4994L14.6258 34.2934L14.6349 25.1165L14.6487 15.9349L14.7906 15.7564C14.8638 15.6603 15.0195 15.5367 15.1293 15.4772C15.317 15.3857 15.3903 15.3765 16.1822 15.3765C17.1161 15.3765 17.2717 15.4131 17.5143 15.6786C17.583 15.7518 20.1236 19.5783 23.1632 24.1873C26.2028 28.7964 30.3594 35.0898 32.4011 38.1793L36.109 43.7954L36.2967 43.6718C37.9584 42.5916 39.7162 41.0537 41.1079 39.4518C44.0696 36.051 45.9785 31.9042 46.6194 27.4828C46.8071 26.1967 46.83 25.8168 46.83 24.0729C46.83 22.3291 46.8071 21.9492 46.6194 20.663C45.3468 11.8705 39.0891 4.48317 30.602 1.7461C29.1051 1.26094 27.5121 0.926814 25.7267 0.725424C25.2873 0.679654 22.2614 0.629306 21.8815 0.665922ZM31.4672 14.8273C31.6869 14.9371 31.8655 15.1477 31.9295 15.3674C31.9662 15.4864 31.9753 18.0312 31.9662 23.7662L31.9524 31.9958L30.5013 29.7713L29.0456 27.5469V21.5647C29.0456 17.6971 29.0639 15.523 29.0914 15.4177C29.1646 15.1614 29.3248 14.96 29.5446 14.841C29.7322 14.7449 29.8009 14.7357 30.5196 14.7357C31.1971 14.7357 31.3161 14.7449 31.4672 14.8273Z" />
</svg>
