<svg viewBox="0 0 56 34" fill="none" xmlns="http://www.w3.org/2000/svg">
<path d="M27.6784 34.0001C27.4936 34.0001 27.31 33.9521 27.148 33.8596L25.4596 32.8687C25.2075 32.7289 25.3305 32.6794 25.4137 32.651C25.7499 32.5342 25.8181 32.5079 26.177 32.3058C26.2148 32.2845 26.2641 32.292 26.3027 32.3146L27.5998 33.0776C27.6466 33.1027 27.7131 33.1027 27.7565 33.0776L32.8138 30.1837C32.8606 30.1574 32.891 30.1034 32.891 30.0482V24.2629C32.891 24.2052 32.8606 24.1538 32.8128 24.1249L27.7575 21.2335C27.7107 21.2059 27.6486 21.2059 27.6018 21.2335L22.5475 24.1249C22.4985 24.1525 22.4674 24.2065 22.4674 24.2617V30.047C22.4674 30.1022 22.4978 30.1549 22.5459 30.1812L23.9308 30.9744C24.6827 31.3471 25.1423 30.9078 25.1423 30.4661V24.7561C25.1423 24.6746 25.2068 24.6118 25.2891 24.6118H25.9297C26.0094 24.6118 26.0752 24.6746 26.0752 24.7561V30.4686C26.0752 31.4625 25.5284 32.0335 24.5777 32.0335C24.2853 32.0335 24.0549 32.0335 23.4118 31.7198L22.0851 30.9618C21.7572 30.7736 21.5547 30.4222 21.5547 30.047V24.2617C21.5547 23.8852 21.7572 23.5338 22.0851 23.3481L27.1475 20.453C27.4677 20.2735 27.8931 20.2735 28.2108 20.453L33.2669 23.3493C33.5935 23.5363 33.7973 23.8865 33.7973 24.2629V30.0482C33.7973 30.4234 33.5935 30.7736 33.2669 30.9618L28.2108 33.8569C28.0488 33.9498 27.8652 33.9975 27.6779 33.9975" />
<path d="M29.2412 30.0139C27.0284 30.0139 26.5645 29.0069 26.5645 28.1623C26.5645 28.082 26.6298 28.018 26.7109 28.018H27.3641C27.4363 28.018 27.497 28.0701 27.5084 28.1408C27.6072 28.8006 27.9009 29.1334 29.2389 29.1334C30.3048 29.1334 30.758 28.8947 30.758 28.3344C30.758 28.0119 30.6289 27.7722 28.9731 27.6115C27.5882 27.476 26.7324 27.1736 26.7324 26.0755C26.7324 25.064 27.5933 24.4616 29.0351 24.4616C30.6542 24.4616 31.4568 25.0188 31.5581 26.2161C31.5619 26.2575 31.5467 26.2976 31.5188 26.3277C31.491 26.3566 31.4517 26.3742 31.4112 26.3742H30.7542C30.6859 26.3742 30.6264 26.3265 30.6124 26.2612C30.4542 25.5672 30.0719 25.3451 29.0326 25.3451C27.8692 25.3451 27.7338 25.7467 27.7338 26.0479C27.7338 26.4131 27.8933 26.5197 29.463 26.7256C31.0175 26.9301 31.7556 27.2187 31.7556 28.3018C31.7556 29.3936 30.8365 30.0198 29.2339 30.0198M35.3938 23.8844H35.5634C35.7027 23.8844 35.7293 23.7877 35.7293 23.7313C35.7293 23.5832 35.6267 23.5832 35.5697 23.5832H35.3951L35.3938 23.8844ZM35.1874 23.41H35.5634C35.6925 23.41 35.9457 23.41 35.9457 23.6961C35.9457 23.8957 35.8166 23.9371 35.7394 23.9622C35.89 23.9722 35.9001 24.0701 35.9204 24.2082C35.9305 24.2947 35.947 24.4441 35.9774 24.4943H35.7457C35.7394 24.4441 35.7039 24.168 35.7039 24.1529C35.6887 24.0914 35.6672 24.0613 35.59 24.0613H35.3988V24.4955H35.1874V23.41ZM34.7355 23.9496C34.7355 24.3989 35.1014 24.7628 35.5508 24.7628C36.004 24.7628 36.3698 24.3914 36.3698 23.9496C36.3698 23.4991 35.9989 23.1415 35.5495 23.1415C35.1064 23.1415 34.7342 23.4941 34.7342 23.9484M36.5268 23.9521C36.5268 24.4842 36.0875 24.9184 35.552 24.9184C35.0203 24.9184 34.5773 24.4893 34.5773 23.9521C34.5773 23.405 35.0305 22.9858 35.552 22.9858C36.0774 22.9858 36.5255 23.4062 36.5255 23.9521" />
<path fill-rule="evenodd" clip-rule="evenodd" d="M12.018 11.3634C12.018 11.1325 11.8952 10.9204 11.6942 10.8056L6.33233 7.74733C6.24182 7.69463 6.14042 7.66702 6.03762 7.66325H5.98218C5.87939 7.66702 5.77799 7.69463 5.68596 7.74733L0.324326 10.8056C0.124565 10.9211 0 11.1332 0 11.3641L0.011773 19.6015C0.011773 19.7157 0.0712707 19.8224 0.172543 19.8788C0.271284 19.9391 0.395343 19.9391 0.494084 19.8788L3.68164 18.0692C3.88292 17.9505 4.00571 17.7407 4.00571 17.512V13.6637C4.00571 13.4341 4.12851 13.222 4.32915 13.1078L5.68621 12.333C5.78697 12.2753 5.89762 12.2467 6.01028 12.2467C6.12117 12.2467 6.23435 12.275 6.33233 12.3329L7.68875 13.1074C7.88952 13.2216 8.01282 13.4337 8.01282 13.6634V17.5114C8.01282 17.7398 8.13726 17.9506 8.33753 18.0686L11.5231 19.8769C11.6231 19.9359 11.7475 19.9359 11.8471 19.8769C11.9454 19.8205 12.0076 19.7138 12.0076 19.5996L12.018 11.3634ZM37.3195 15.6523C37.3195 15.7097 37.2887 15.7628 37.2385 15.7911L35.3968 16.8435C35.3468 16.872 35.285 16.872 35.2352 16.8435L33.3933 15.7911C33.3426 15.7626 33.3123 15.7095 33.3123 15.6523V13.5445C33.3123 13.487 33.3426 13.4341 33.392 13.4052L35.2326 12.3511C35.2833 12.3222 35.3453 12.3222 35.3959 12.3511L37.2378 13.4052C37.2885 13.4341 37.3189 13.487 37.3189 13.5445L37.3195 15.6523ZM37.817 0.0406328C37.7165 -0.0148354 37.5942 -0.0133295 37.4949 0.0440212C37.3962 0.101748 37.3352 0.207163 37.3352 0.321363V8.47846C37.3352 8.55878 37.2921 8.63282 37.222 8.67298C37.1524 8.71314 37.0657 8.71314 36.9954 8.67298L35.6523 7.90608C35.4523 7.79138 35.2059 7.79138 35.0052 7.90608L29.6415 10.9748C29.4411 11.089 29.3174 11.3011 29.3174 11.5295V17.6686C29.3174 17.8983 29.4411 18.1091 29.6415 18.2246L35.0052 21.2954C35.2054 21.4096 35.452 21.4096 35.6529 21.2954L41.0166 18.2233C41.2166 18.1079 41.3407 17.897 41.3407 17.6674V2.36716C41.3407 2.13425 41.2128 1.92003 41.0077 1.80621L37.817 0.0406328ZM55.6781 13.4891C55.8773 13.3744 56 13.1625 56 12.9341V11.4463C56 11.2174 55.8772 11.0062 55.6776 10.891L50.3481 7.82389C50.1468 7.70843 49.9 7.70843 49.6987 7.82389L44.3363 10.8922C44.135 11.0077 44.0122 11.2185 44.0122 11.4481V17.5848C44.0122 17.8157 44.1375 18.029 44.3388 18.1432L49.667 21.1538C49.8633 21.2655 50.1038 21.2668 50.3025 21.1576L53.5255 19.3819C53.6268 19.3254 53.6914 19.2187 53.6914 19.1033C53.6914 18.9878 53.6293 18.8799 53.5281 18.8234L48.1328 15.7538C48.0315 15.6974 47.9695 15.5907 47.9695 15.4765V13.5514C47.9695 13.4365 48.0302 13.3306 48.1315 13.2733L49.8101 12.3133C49.9101 12.2556 50.0329 12.2556 50.1329 12.3133L51.8128 13.2733C51.9128 13.3298 51.9748 13.4365 51.9748 13.5507V15.0641C51.9748 15.1783 52.0368 15.285 52.1368 15.3427C52.2368 15.3992 52.3609 15.3992 52.4609 15.3415L55.6781 13.4891Z" fill-opacity="0.55"/>
<path fill-rule="evenodd" clip-rule="evenodd" d="M49.9454 13.2017C49.9833 13.1795 50.0309 13.1795 50.0694 13.2017L51.0986 13.7903C51.1371 13.8124 51.1606 13.853 51.1606 13.897V15.0753C51.1606 15.1193 51.1371 15.1599 51.0986 15.182L50.0694 15.7706C50.0309 15.7928 49.9833 15.7928 49.9454 15.7706L48.9168 15.182C48.8776 15.1599 48.8535 15.1193 48.8535 15.0753V13.897C48.8535 13.853 48.8763 13.8124 48.9155 13.7903L49.9454 13.2017Z" />
<path d="M20.347 7.85438L15.0137 10.906C14.8139 11.0202 14.6914 11.231 14.6914 11.4589V17.5665C14.6914 17.7945 14.8139 18.0052 15.0137 18.1194L20.3474 21.1734C20.5467 21.2872 20.7926 21.2872 20.9917 21.1734L26.3245 18.1194C26.5232 18.0052 26.646 17.7944 26.646 17.5665V11.4589C26.646 11.231 26.5232 11.0202 26.3232 10.906L20.9912 7.85438C20.8912 7.79753 20.7798 7.76904 20.6684 7.76904C20.557 7.76904 20.4456 7.79753 20.3456 7.85438" />
</svg>
