<svg viewBox="0 0 46 31" fill="none" xmlns="http://www.w3.org/2000/svg">
<path d="M25.76 31H42.78C43.3231 31 43.843 30.8071 44.3133 30.535C44.7837 30.2629 45.2686 29.9213 45.54 29.4499C45.8114 28.9787 46.0002 28.4439 46 27.8999C45.9998 27.3557 45.8119 26.8211 45.54 26.3501L34.04 6.35503C33.7686 5.88378 33.4369 5.54205 32.9667 5.26996C32.4964 4.99798 31.823 4.80496 31.28 4.80496C30.737 4.80496 30.2169 4.99798 29.7467 5.26996C29.2764 5.54205 28.9447 5.88378 28.6733 6.35503L25.76 11.47L19.9333 1.54963C19.6616 1.07849 19.3304 0.582017 18.86 0.310037C18.3896 0.0379461 17.8698 0 17.3267 0C16.7836 0 16.2637 0.0379461 15.7933 0.310037C15.323 0.582017 14.8384 1.07849 14.5667 1.54963L0.306671 26.3501C0.0348048 26.8211 0.000239869 27.3557 1.18965e-06 27.8999C-0.00023749 28.4439 0.035217 28.9786 0.306671 29.4499C0.578126 29.9212 1.06298 30.2629 1.53333 30.535C2.00369 30.8071 2.52352 31 3.06667 31H13.8C18.0529 31 21.1485 29.0715 23.3067 25.42L28.52 16.275L31.28 11.47L39.7133 26.04H28.52L25.76 31ZM13.6467 26.04H6.1333L17.3267 6.50999L23 16.275L19.242 22.8973C17.8088 25.2665 16.1748 26.04 13.6467 26.04Z" />
</svg>
