<svg viewBox="0 0 100 102" fill="none" xmlns="http://www.w3.org/2000/svg">
<path d="M50 59.8067C54.9225 59.8067 58.913 55.815 58.913 50.8909C58.913 45.9668 54.9225 41.975 50 41.975C45.0774 41.975 41.0869 45.9668 41.0869 50.8909C41.0869 55.815 45.0774 59.8067 50 59.8067Z"/>
<path d="M96.3262 50.8907C96.3261 48.9408 95.2971 46.9116 93.0625 44.8937C90.828 42.8759 87.5104 40.9897 83.2832 39.3751C74.839 36.15 63.0718 34.1242 50 34.1241C36.9281 34.1241 25.161 36.1499 16.7168 39.3751C12.4896 40.9897 9.17204 42.8759 6.9375 44.8937C4.70285 46.9116 3.67386 48.9408 3.67383 50.8907C3.67383 52.8407 4.70282 54.8699 6.9375 56.8878C9.17204 58.9056 12.4896 60.7918 16.7168 62.4064C25.161 65.6315 36.9281 67.6573 50 67.6573C63.0718 67.6573 74.839 65.6315 83.2832 62.4064C87.5104 60.7918 90.828 58.9056 93.0625 56.8878C95.2971 54.8699 96.3262 52.8407 96.3262 50.8907ZM99.3262 50.8907C99.3262 53.9849 97.6787 56.7616 95.0732 59.1144C92.4676 61.4673 88.7809 63.5171 84.3535 65.2081C75.4881 68.5942 63.3417 70.6573 50 70.6573C36.6583 70.6573 24.5119 68.5942 15.6465 65.2081C11.219 63.5171 7.53243 61.4673 4.92676 59.1144C2.32122 56.7615 0.673828 53.9849 0.673828 50.8907C0.673859 47.7966 2.3212 45.02 4.92676 42.6671C7.53244 40.3142 11.219 38.2644 15.6465 36.5734C24.5119 33.1873 36.6583 31.1241 50 31.1241C63.3417 31.1242 75.4881 33.1873 84.3535 36.5734C88.7809 38.2644 92.4676 40.3142 95.0732 42.6671C97.6788 45.0199 99.3261 47.7966 99.3262 50.8907Z" />
<path d="M73.1625 91.0235C74.8503 90.0488 76.0929 88.1432 76.7226 85.1986C77.3523 82.2538 77.3265 78.4362 76.6106 73.9668C75.1807 65.0389 71.0513 53.8322 64.5154 42.508C57.9794 31.1837 50.3415 22.0023 43.3271 16.2996C39.8157 13.4449 36.5238 11.5145 33.6596 10.5876C30.7952 9.66061 28.524 9.78358 26.8362 10.7584C25.1485 11.7332 23.9063 13.6394 23.2766 16.5841C22.6471 19.5287 22.6732 23.3456 23.3889 27.8146C24.8189 36.7425 28.9487 47.9499 35.4847 59.2742C42.0206 70.5983 49.6582 79.7791 56.6725 85.4817C60.1839 88.3365 63.4754 90.2682 66.3396 91.1951C69.2038 92.122 71.4747 91.9981 73.1625 91.0235ZM74.6622 93.6218C71.9831 95.1689 68.7556 95.13 65.4161 94.0493C62.0762 92.9685 58.4578 90.7996 54.78 87.8096C47.4161 81.8226 39.5575 72.3321 32.8868 60.7746C26.2161 49.2168 21.9286 37.6631 20.4274 28.2901C19.6776 23.6091 19.6092 19.39 20.3434 15.9562C21.0776 12.5229 22.6576 9.7074 25.3366 8.16008C28.0157 6.61277 31.2438 6.65132 34.5835 7.73205C37.9234 8.81288 41.5418 10.9817 45.2196 13.9718C52.5836 19.9588 60.4425 29.4499 67.1132 41.0076C73.7838 52.5652 78.0709 64.1184 79.5722 73.4912C80.322 78.1723 80.3904 82.3914 79.6562 85.8252C78.922 89.2587 77.3414 92.0744 74.6622 93.6218Z" />
<path d="M26.8368 91.023C28.5245 91.9978 30.7955 92.1215 33.6597 91.1947C36.5239 90.2678 39.8162 88.3366 43.3276 85.4818C50.342 79.7791 57.9795 70.5984 64.5154 59.2742C71.0514 47.95 75.1813 36.7425 76.6112 27.8146C77.327 23.3453 77.3523 19.5283 76.7227 16.5837C76.093 13.6387 74.8509 11.7327 73.1631 10.7579C71.4753 9.7833 69.2039 9.66022 66.3396 10.5871C63.4756 11.5141 60.1842 13.4451 56.6731 16.2997C49.6587 22.0024 42.0208 31.1838 35.4848 42.508C28.9489 53.8322 24.8194 65.039 23.3895 73.9668C22.6737 78.4362 22.647 82.2534 23.2767 85.1981C23.9064 88.1429 25.1491 90.0482 26.8368 91.023ZM25.3371 93.6213C22.6582 92.074 21.0781 89.2586 20.3439 85.8252C19.6097 82.3914 19.6782 78.1723 20.4279 73.4913C21.9292 64.1184 26.2163 52.5653 32.8869 41.0077C39.5577 29.4499 47.4165 19.9588 54.7805 13.9718C58.4583 10.9818 62.0768 8.81292 65.4167 7.73209C68.7561 6.65145 71.9837 6.61253 74.6627 8.15963C77.3419 9.70693 78.9226 12.5227 79.6568 15.9562C80.391 19.39 80.3225 23.6091 79.5728 28.2902C78.0715 37.6632 73.7841 49.2169 67.1133 60.7746C60.4427 72.3321 52.5841 81.8226 45.2201 87.8096C41.5424 90.7996 37.9239 92.9685 34.584 94.0493C31.2443 95.1301 28.0163 95.1686 25.3371 93.6213Z" />
</svg>
