<svg viewBox="0 0 128 120" xmlns="http://www.w3.org/2000/svg">
<path d="M47.1041 55.8778L15.2715 45.0052V47.5987L30.1868 52.7856L30.0867 92.6851L32.0887 93.2836L32.1888 53.4839L47.1041 58.5711V55.8778" />
<path d="M114.17 46.7019L82.137 57.2753V59.8687L97.1523 54.981L97.0522 94.5812L99.0543 93.9827L99.1544 54.2828L114.17 49.2954V46.7019" />
<path fill-rule="evenodd" clip-rule="evenodd" d="M128 31.3113V31.8083V33.2993L127.9 92.4428C127.9 96.9158 125 100.892 120.7 102.283L75.2 117.094L74.4 117.293L72.7 117.889C72.65 117.889 72.6 117.914 72.55 117.939C72.5 117.964 72.45 117.989 72.4 117.989L68.6 119.182C65.8 120.076 62.9 119.977 60.2 118.983L55.4 117.194L6.9 99.5997C2.8 98.0092 0 94.1326 0 89.759V29.5221V23.558C0 20.9736 1.7 18.588 4.2 17.7928L8.8 16.3017H8.9L57.3 0.795207C58.9 0.298203 60.5 0 62.2 0C64.1 0 65.9 0.397603 67.6 0.994009L116.6 18.6874L124 21.2718C126.4 22.067 128 24.3532 128 26.8382V31.3113ZM62.2019 2.28562C60.8019 2.28562 59.4019 2.58383 58.1019 2.98143L9.70186 18.5874C7.40186 19.3826 7.30186 22.6628 9.60186 23.458L58.6019 40.9526C60.2019 41.549 62.0019 41.8472 63.7019 41.8472C65.2019 41.8472 66.8019 41.6484 68.3019 41.1514L97.4019 31.8077L116.702 25.5454C118.402 24.5514 118.302 21.7682 116.202 20.973L66.8019 3.08083C65.3019 2.58383 63.7019 2.28562 62.2019 2.28562ZM2.40083 89.7593L2.50083 29.6218C2.50083 27.1367 4.50083 25.2481 6.90084 25.2481C7.40084 25.2481 7.90084 25.3475 8.40084 25.5463L57.8009 43.4385C61.1009 44.6313 63.3009 47.8121 63.3009 51.2911L63.2009 110.932C63.2009 113.516 61.1009 115.405 58.7009 115.405C58.2009 115.405 57.7009 115.305 57.1009 115.106L7.70084 97.2143C4.50083 96.1209 2.40083 93.1389 2.40083 89.7593ZM119.899 99.8985C123.299 98.8051 125.499 95.7237 125.499 92.2446L125.599 31.2125C125.599 28.7275 123.499 26.8389 121.199 26.8389C120.868 26.8389 120.536 26.9071 120.148 26.987C120.068 27.0035 119.985 27.0206 119.899 27.0377L117.599 27.8329C117.449 27.8826 117.324 27.9323 117.199 27.982C117.074 28.0317 116.949 28.0814 116.799 28.1311L98.0992 34.1945L71.5992 42.8424C68.0992 43.9358 65.6992 47.216 65.6992 50.8939L65.5992 110.932C65.5992 113.616 67.7992 115.703 70.3992 115.703C70.8992 115.703 71.3992 115.703 71.8992 115.504L119.899 99.8985Z" />
</svg>
