<svg width="64" height="60" viewBox="0 0 64 60" fill="none" xmlns="http://www.w3.org/2000/svg">
<path d="M57.0848 23.3511L41.0684 28.6378V29.9345L48.576 27.4906L48.526 47.2907L49.527 46.9915L49.5771 27.1415L57.0848 24.6478V23.3511Z" fill="white" fill-opacity="0.64"/>
<path fill-rule="evenodd" clip-rule="evenodd" d="M64 16.6496L63.95 46.2214C63.95 48.4579 62.5 50.4459 60.35 51.1417L37.6 58.5471L37.2 58.6465L36.35 58.9447C36.325 58.9447 36.3 58.9571 36.275 58.9696C36.25 58.982 36.225 58.9944 36.2 58.9944L34.3 59.5908C32.9 60.0381 31.45 59.9884 30.1 59.4914L27.7 58.5968L3.45 49.7998C1.4 49.0046 0 47.0663 0 44.8795V11.779C0 10.4868 0.85 9.29398 2.1 8.89638L4.4 8.15087H4.45L28.65 0.397603C29.45 0.149101 30.25 0 31.1 0C32.05 0 32.95 0.198802 33.8 0.497004L58.3 9.34368L62 10.6359C63.2 11.0335 64 12.1766 64 13.4191V16.6496ZM31.1009 1.14281C30.4009 1.14281 29.7009 1.29191 29.0509 1.49072L4.85093 9.29368C3.70093 9.69129 3.65093 11.3314 4.80093 11.729L29.3009 20.4763C30.1009 20.7745 31.0009 20.9236 31.8509 20.9236C32.6009 20.9236 33.4009 20.8242 34.1509 20.5757L48.7009 15.9038L58.3509 12.7727C59.2009 12.2757 59.1509 10.8841 58.1009 10.4865L33.4009 1.54042C32.6509 1.29191 31.8509 1.14281 31.1009 1.14281ZM1.20042 44.8796L1.25042 14.8109C1.25042 13.5684 2.25042 12.6241 3.45042 12.6241C3.70042 12.6241 3.95042 12.6738 4.20042 12.7732L28.9004 21.7192C30.5504 22.3156 31.6504 23.9061 31.6504 25.6456L31.6004 55.4658C31.6004 56.758 30.5504 57.7024 29.3504 57.7024C29.1004 57.7024 28.8504 57.6527 28.5504 57.5533L3.85042 48.6072C2.25042 48.0605 1.20042 46.5695 1.20042 44.8796ZM59.9496 49.9493C61.6496 49.4025 62.7496 47.8618 62.7496 46.1223L62.7996 15.6062C62.7996 14.3637 61.7496 13.4194 60.5996 13.4194C60.4339 13.4194 60.2682 13.4535 60.0741 13.4935C60.0339 13.5018 59.9925 13.5103 59.9496 13.5188L58.7996 13.9164C58.7246 13.9413 58.6621 13.9661 58.5996 13.991C58.5371 14.0158 58.4746 14.0407 58.3996 14.0655L49.0496 17.0973L35.7996 21.4212C34.0496 21.9679 32.8496 23.608 32.8496 25.4469L32.7996 55.466C32.7996 56.8079 33.8996 57.8516 35.1996 57.8516C35.4496 57.8516 35.6996 57.8516 35.9496 57.7522L59.9496 49.9493Z" fill="white" fill-opacity="0.64"/>
<path d="M1.25042 14.8109L1.20042 44.8796C1.20042 46.5695 2.25042 48.0605 3.85042 48.6072L28.5504 57.5533C28.8504 57.6527 29.1004 57.7024 29.3504 57.7024C30.5504 57.7024 31.6004 56.758 31.6004 55.4658L31.6504 25.6456C31.6504 23.9061 30.5504 22.3156 28.9004 21.7192L4.20042 12.7732C3.95042 12.6738 3.70042 12.6241 3.45042 12.6241C2.25042 12.6241 1.25042 13.5684 1.25042 14.8109Z" fill="white" fill-opacity="0.64"/>
<path d="M29.0509 1.49072C29.7009 1.29191 30.4009 1.14281 31.1009 1.14281C31.8509 1.14281 32.6509 1.29191 33.4009 1.54042L58.1009 10.4865C59.1509 10.8841 59.2009 12.2757 58.3509 12.7727L48.7009 15.9038L34.1509 20.5757C33.4009 20.8242 32.6009 20.9236 31.8509 20.9236C31.0009 20.9236 30.1009 20.7745 29.3009 20.4763L4.80093 11.729C3.65093 11.3314 3.70093 9.69129 4.85093 9.29368L29.0509 1.49072Z" fill="white" fill-opacity="0.64"/>
</svg>
