<svg width="66" height="62" viewBox="0 0 66 62" fill="none" xmlns="http://www.w3.org/2000/svg">
<path fill-rule="evenodd" clip-rule="evenodd" d="M61.5996 14.4189C62.7496 14.4189 63.7998 15.3639 63.7998 16.6064L63.75 47.1221C63.75 48.8615 62.65 50.4024 60.9502 50.9492L36.9502 58.752C36.7003 58.8513 36.4501 58.8516 36.2002 58.8516C34.9002 58.8516 33.7998 57.8077 33.7998 56.4658L33.8496 26.4473C33.8496 24.6083 35.0498 22.9676 36.7998 22.4209L50.0498 18.0977L59.3994 15.0654C59.5494 15.0157 59.6498 14.9657 59.7998 14.916L60.9502 14.5186C61.1999 14.4689 61.3998 14.419 61.5996 14.4189ZM42.0684 29.6377V30.9346L49.5762 28.4902L49.5264 48.291L50.5273 47.9912L50.5771 28.1416L58.085 25.6475V24.3516L42.0684 29.6377Z" fill="white" fill-opacity="0.64"/>
<path d="M65 16.9041V16.6556V16.6556V14.4191C65 13.1766 64.2 12.0335 63 11.6359L59.3 10.3437L34.8 1.497C33.95 1.1988 33.05 1 32.1 1C31.25 1 30.45 1.1491 29.65 1.3976L5.45 9.15087C5.45 9.15087 5.45 9.15087 5.4 9.15087L3.1 9.89638C1.85 10.294 1 11.4868 1 12.779V15.761V15.761L1 45.8795C1 48.0663 2.4 50.0046 4.45 50.7998L28.7 59.5968V59.5968L31.1 60.4914C32.45 60.9884 33.9 61.0381 35.3 60.5908L37.2 59.9944C37.25 59.9944 37.3 59.9447 37.35 59.9447L38.2 59.6465L38.6 59.5471V59.5471L61.35 52.1417C63.5 51.4459 64.95 49.4579 64.95 47.2214L65 17.6496V17.6496V16.9041Z" stroke="white" stroke-opacity="0.64"/>
<path d="M24.552 28.9392L8.63574 23.5029V24.7997L16.0934 27.3931L16.0433 47.3428L17.0444 47.6421L17.0944 27.7422L24.552 30.2858V28.9392Z" fill="white" fill-opacity="0.64"/>
</svg>
