<svg width="129" height="121" viewBox="0 0 129 121" fill="none" xmlns="http://www.w3.org/2000/svg">
<path d="M115.67 50.5176L100.652 55.5049L100.552 95.2285L96.5488 96.4248L96.6484 56.8594L81.6367 61.7461V57.0527L115.67 45.8193V50.5176Z" />
<path fill-rule="evenodd" clip-rule="evenodd" d="M62.7002 0C64.4243 2.37539e-05 66.0617 0.315301 67.6084 0.802734L68.2656 1.02246L68.2695 1.02344L117.264 18.7148L124.656 21.2969C127.265 22.1614 129 24.6424 129 27.3379V33.7998L128.9 92.9434C128.9 97.6349 125.858 101.8 121.354 103.258L121.354 103.259L75.8545 118.069L75.8379 118.075L75.8203 118.079L75.041 118.272L73.3652 118.861L73.2852 118.89H73.2656C73.2365 118.905 73.1391 118.954 73.0146 118.977L69.251 120.157L69.252 120.158C66.3429 121.088 63.3286 120.983 60.5273 119.952L60.5254 119.951L55.7295 118.163L7.22949 100.569L7.21875 100.566C2.93814 98.9057 0 94.8507 0 90.2588V24.0576C0.00016863 21.2596 1.83763 18.6788 4.54883 17.8164L9.2207 16.3018H9.32031L57.6475 0.819336L57.6514 0.817383C59.2885 0.308844 60.9396 0 62.7002 0ZM121.699 28.8389C121.549 28.8389 121.373 28.8693 120.951 28.9561C120.902 28.9662 120.849 28.9762 120.794 28.9873L118.59 29.751L118.581 29.7539L118.571 29.7568C118.468 29.791 118.38 29.8257 118.254 29.876C118.131 29.9249 117.968 29.9896 117.771 30.0547L117.763 30.0576L99.0625 36.1211L72.5654 44.7686L72.5557 44.7715L72.2803 44.8633C69.5557 45.8393 67.6994 48.4621 67.6992 51.3936V51.3965L67.5986 111.435C67.6 113.26 69.0998 114.703 70.8994 114.703C71.4358 114.703 71.6523 114.687 71.8457 114.61L71.8896 114.593L71.9355 114.578L119.936 98.9717L119.94 98.9707C122.716 98.0778 124.5 95.576 124.5 92.7451V92.7422L124.6 31.7129L124.596 31.5635C124.514 30.0304 123.176 28.8391 121.699 28.8389Z" />
</svg>
