<svg width="100" height="100" viewBox="0 0 100 100" fill="none" xmlns="http://www.w3.org/2000/svg">
<path fill-rule="evenodd" clip-rule="evenodd" d="M87.8203 3H12.1797C7.10989 3 3 7.10989 3 12.1797V87.8203C3 92.8901 7.10989 97 12.1797 97H87.8203C92.8901 97 97 92.8901 97 87.8203V12.1797C97 7.10989 92.8901 3 87.8203 3ZM45.737 55.1557H57.5273V47.6133H24.6641V55.1557H36.3968V88.7383H45.737V55.1557ZM61.188 86.9914V77.8005C62.8545 79.1984 64.6647 80.2467 66.6185 80.9455C68.5725 81.6444 70.5454 81.9938 72.5376 81.9938C73.7062 81.9938 74.726 81.8886 75.5977 81.6778C76.4693 81.4672 77.1972 81.1753 77.7814 80.8019C78.3656 80.4285 78.8015 79.9882 79.0888 79.4807C79.3761 78.9733 79.5199 78.4229 79.5199 77.8293C79.5199 77.025 79.29 76.307 78.8303 75.6752C78.3704 75.0433 77.743 74.4593 76.9481 73.9232C76.1533 73.3871 75.2098 72.8701 74.118 72.3722C73.0261 71.8743 71.848 71.367 70.5838 70.85C67.3656 69.5096 64.9664 67.8725 63.3862 65.9387C61.8058 64.0047 61.0156 61.6687 61.0156 58.9306C61.0156 56.786 61.4467 54.9431 62.3087 53.4018C63.1706 51.8604 64.3438 50.5919 65.8283 49.5961C67.3131 48.6005 69.0322 47.8681 70.986 47.399C72.9399 46.9299 75.0086 46.6953 77.1924 46.6953C79.3377 46.6953 81.239 46.8246 82.896 47.0831C84.5529 47.3416 86.0806 47.7389 87.4788 48.275V56.8627C86.7892 56.3839 86.0374 55.9628 85.2234 55.5989C84.4091 55.2352 83.5712 54.9335 82.7092 54.6941C81.8471 54.4549 80.9899 54.2777 80.1375 54.1628C79.285 54.0481 78.4758 53.9906 77.7096 53.9906C76.656 53.9906 75.6984 54.091 74.8362 54.2921C73.9742 54.4931 73.2465 54.7756 72.6525 55.1393C72.0588 55.5032 71.5991 55.9387 71.2734 56.4462C70.9477 56.9536 70.7848 57.5233 70.7848 58.1551C70.7848 58.8444 70.967 59.4619 71.3308 60.0077C71.6947 60.5533 72.2119 61.0703 72.8824 61.5587C73.5529 62.0469 74.3669 62.5255 75.3247 62.9948C76.2825 63.4638 77.3648 63.9473 78.5716 64.4452C80.219 65.1344 81.6987 65.8667 83.0109 66.6422C84.323 67.4177 85.4485 68.2938 86.387 69.2704C87.3257 70.2469 88.0439 71.3622 88.542 72.6164C89.0401 73.8705 89.2891 75.3304 89.2891 76.9964C89.2891 79.294 88.8532 81.2231 87.9817 82.7836C87.1102 84.3442 85.9273 85.608 84.4332 86.5748C82.9391 87.5418 81.2007 88.236 79.218 88.6571C77.2354 89.0785 75.1428 89.2891 72.9399 89.2891C70.6795 89.2891 68.5294 89.0976 66.4893 88.7146C64.4492 88.3316 62.6821 87.7573 61.188 86.9914Z" fill="white"/>
</svg>
